<svg xmlns="http://www.w3.org/2000/svg" xmlns:xlink="http://www.w3.org/1999/xlink" contentStyleType="text/css" data-diagram-type="CLASS" height="1239px" preserveAspectRatio="none" style="width:1613px;height:1239px;background:#FFFFFF;" version="1.1" viewBox="0 0 1613 1239" width="1613px" zoomAndPan="magnify"><defs/><g><!--cluster marionette--><g class="cluster" data-entity="marionette" data-source-line="1" data-uid="ent0002" id="cluster_marionette"><path d="M1228.5,161.6 L1317.1982,161.6 A3.75,3.75 0 0 1 1319.6982,164.1 L1326.6982,183.8969 L1603.5,183.8969 A2.5,2.5 0 0 1 1606,186.3969 L1606,577.96 A2.5,2.5 0 0 1 1603.5,580.46 L1228.5,580.46 A2.5,2.5 0 0 1 1226,577.96 L1226,164.1 A2.5,2.5 0 0 1 1228.5,161.6" fill="none" style="stroke:#000000;stroke-width:1.5;"/><line style="stroke:#000000;stroke-width:1.5;" x1="1226" x2="1326.6982" y1="183.8969" y2="183.8969"/><text fill="#000000" font-family="sans-serif" font-size="14" font-weight="bold" lengthAdjust="spacing" textLength="87.6982" x="1230" y="176.5951">marionette</text></g><!--cluster entities--><g class="cluster" data-entity="entities" data-source-line="26" data-uid="ent0007" id="cluster_entities"><path d="M592.5,6 L653.7725,6 A3.75,3.75 0 0 1 656.2725,8.5 L663.2725,28.2969 L755.5,28.2969 A2.5,2.5 0 0 1 758,30.7969 L758,135.1 A2.5,2.5 0 0 1 755.5,137.6 L592.5,137.6 A2.5,2.5 0 0 1 590,135.1 L590,8.5 A2.5,2.5 0 0 1 592.5,6" fill="none" style="stroke:#000000;stroke-width:1.5;"/><line style="stroke:#000000;stroke-width:1.5;" x1="590" x2="663.2725" y1="28.2969" y2="28.2969"/><text fill="#000000" font-family="sans-serif" font-size="14" font-weight="bold" lengthAdjust="spacing" textLength="60.2725" x="594" y="20.9951">entities</text></g><!--cluster commands--><g class="cluster" data-entity="commands" data-source-line="33" data-uid="ent0009" id="cluster_commands"><path d="M8.5,448.86 L94.3613,448.86 A3.75,3.75 0 0 1 96.8613,451.36 L103.8613,471.1569 L1199.5,471.1569 A2.5,2.5 0 0 1 1202,473.6569 L1202,1229.52 A2.5,2.5 0 0 1 1199.5,1232.02 L8.5,1232.02 A2.5,2.5 0 0 1 6,1229.52 L6,451.36 A2.5,2.5 0 0 1 8.5,448.86" fill="none" style="stroke:#000000;stroke-width:1.5;"/><line style="stroke:#000000;stroke-width:1.5;" x1="6" x2="103.8613" y1="471.1569" y2="471.1569"/><text fill="#000000" font-family="sans-serif" font-size="14" font-weight="bold" lengthAdjust="spacing" textLength="84.8613" x="10" y="463.8551">commands</text></g><!--cluster su_str--><g class="cluster" data-entity="su_str" data-source-line="69" data-uid="ent0028" id="cluster_su_str"><path d="M32.5,919.54 L206.4697,919.54 A3.75,3.75 0 0 1 208.9697,922.04 L215.9697,941.8369 L1175.5,941.8369 A2.5,2.5 0 0 1 1178,944.3369 L1178,1205.52 A2.5,2.5 0 0 1 1175.5,1208.02 L32.5,1208.02 A2.5,2.5 0 0 1 30,1205.52 L30,922.04 A2.5,2.5 0 0 1 32.5,919.54" fill="none" style="stroke:#000000;stroke-width:1.5;"/><line style="stroke:#000000;stroke-width:1.5;" x1="30" x2="215.9697" y1="941.8369" y2="941.8369"/><text fill="#000000" font-family="sans-serif" font-size="14" font-weight="bold" lengthAdjust="spacing" textLength="172.9697" x="34" y="934.5351">scrapUsers.strategies</text></g><!--class anm--><g class="entity" data-entity="anm" data-source-line="2" data-uid="ent0003" id="entity_anm"><rect fill="#F1F1F1" height="210.9688" rx="2.5" ry="2.5" style="stroke:#181818;stroke-width:0.5;" width="347.2275" x="1242.39" y="196.6"/><ellipse cx="1310.1444" cy="212.6" fill="#A9DCDF" rx="11" ry="11" style="stroke:#181818;stroke-width:1;"/><path d="M1310.2538,207.9437 L1309.0975,213.0219 L1311.4256,213.0219 L1310.2538,207.9437 Z M1308.7694,205.7094 L1311.7538,205.7094 L1315.1131,218.1 L1312.66,218.1 L1311.8944,215.0375 L1308.6131,215.0375 L1307.8631,218.1 L1305.4256,218.1 L1308.7694,205.7094 Z " fill="#000000"/><text fill="#000000" font-family="sans-serif" font-size="14" font-style="italic" lengthAdjust="spacing" textLength="203.2188" x="1330.6444" y="217.4467">AbstractNavigatorMarionette</text><line style="stroke:#181818;stroke-width:0.5;" x1="1243.39" x2="1588.6175" y1="228.6" y2="228.6"/><text fill="#000000" font-family="sans-serif" font-size="14" lengthAdjust="spacing" textLength="141.1211" x="1248.39" y="245.5951">webdriver_path : str</text><text fill="#000000" font-family="sans-serif" font-size="14" lengthAdjust="spacing" textLength="126.7588" x="1248.39" y="261.892">user_data_dir : str</text><text fill="#000000" font-family="sans-serif" font-size="14" lengthAdjust="spacing" textLength="169.5039" x="1248.39" y="278.1889">delay_of_page_load : int</text><line style="stroke:#181818;stroke-width:0.5;" x1="1243.39" x2="1588.6175" y1="285.4906" y2="285.4906"/><text fill="#000000" font-family="sans-serif" font-size="14" lengthAdjust="spacing" textLength="290.3223" x="1248.39" y="302.4857">set_delay_of_page_load(delay : int) : void</text><text fill="#000000" font-family="sans-serif" font-size="14" lengthAdjust="spacing" textLength="165.5596" x="1248.39" y="318.7826">get_html_content() : str</text><text fill="#000000" font-family="sans-serif" font-size="14" lengthAdjust="spacing" textLength="247.8711" x="1248.39" y="335.0795">navigate(url : str, wait : bool) : void</text><text fill="#000000" font-family="sans-serif" font-size="14" lengthAdjust="spacing" textLength="293.3027" x="1248.39" y="351.3764">navigate_and_wait_forever(url : str) : void</text><text fill="#000000" font-family="sans-serif" font-size="14" lengthAdjust="spacing" textLength="284.6416" x="1248.39" y="367.6732">click(css_selector : str, wait : bool) : void</text><text fill="#000000" font-family="sans-serif" font-size="14" lengthAdjust="spacing" textLength="335.2275" x="1248.39" y="383.9701">scroll_down(css_selector : str, wait : bool) : void</text><text fill="#000000" font-family="sans-serif" font-size="14" lengthAdjust="spacing" textLength="81.3066" x="1248.39" y="400.267">quit() : void</text></g><!--class ulmen--><g class="entity" data-entity="ulmen" data-source-line="16" data-uid="ent0004" id="entity_ulmen"><rect fill="#F1F1F1" height="96.8906" rx="2.5" ry="2.5" style="stroke:#181818;stroke-width:0.5;" width="174.2627" x="1328.87" y="467.57"/><ellipse cx="1343.87" cy="483.57" fill="#ADD1B2" rx="11" ry="11" style="stroke:#181818;stroke-width:1;"/><path d="M1346.8388,489.2106 Q1346.2606,489.5075 1345.62,489.6481 Q1344.9794,489.8044 1344.2763,489.8044 Q1341.7763,489.8044 1340.4481,488.1637 Q1339.1356,486.5075 1339.1356,483.3825 Q1339.1356,480.2575 1340.4481,478.6012 Q1341.7763,476.945 1344.2763,476.945 Q1344.9794,476.945 1345.62,477.1012 Q1346.2763,477.2575 1346.8388,477.5544 L1346.8388,480.2731 Q1346.2138,479.695 1345.62,479.4294 Q1345.0263,479.1481 1344.4013,479.1481 Q1343.0575,479.1481 1342.37,480.2262 Q1341.6825,481.2887 1341.6825,483.3825 Q1341.6825,485.4762 1342.37,486.5544 Q1343.0575,487.6169 1344.4013,487.6169 Q1345.0263,487.6169 1345.62,487.3512 Q1346.2138,487.07 1346.8388,486.4919 L1346.8388,489.2106 Z " fill="#000000"/><text fill="#000000" font-family="sans-serif" font-size="14" lengthAdjust="spacing" textLength="142.2627" x="1357.87" y="488.4167">UserLikeMsEdgeNav</text><line style="stroke:#181818;stroke-width:0.5;" x1="1329.87" x2="1502.1327" y1="499.57" y2="499.57"/><line style="stroke:#181818;stroke-width:0.5;" x1="1329.87" x2="1502.1327" y1="507.57" y2="507.57"/><text fill="#000000" font-family="sans-serif" font-size="14" lengthAdjust="spacing" textLength="134.873" x="1334.87" y="524.5651">init_options() : void</text><text fill="#000000" font-family="sans-serif" font-size="14" lengthAdjust="spacing" textLength="133.458" x="1334.87" y="540.862">init_service() : void</text><text fill="#000000" font-family="sans-serif" font-size="14" lengthAdjust="spacing" textLength="124.4961" x="1334.87" y="557.1589">init_driver() : void</text></g><!--class user--><g class="entity" data-entity="user" data-source-line="27" data-uid="ent0008" id="entity_user"><rect fill="#F1F1F1" height="80.5938" rx="2.5" ry="2.5" style="stroke:#181818;stroke-width:0.5;" width="135.1338" x="606.43" y="41"/><ellipse cx="621.43" cy="57" fill="#ADD1B2" rx="11" ry="11" style="stroke:#181818;stroke-width:1;"/><path d="M624.3988,62.6406 Q623.8206,62.9375 623.18,63.0781 Q622.5394,63.2344 621.8363,63.2344 Q619.3363,63.2344 618.0081,61.5938 Q616.6956,59.9375 616.6956,56.8125 Q616.6956,53.6875 618.0081,52.0313 Q619.3363,50.375 621.8363,50.375 Q622.5394,50.375 623.18,50.5313 Q623.8363,50.6875 624.3988,50.9844 L624.3988,53.7031 Q623.7738,53.125 623.18,52.8594 Q622.5863,52.5781 621.9613,52.5781 Q620.6175,52.5781 619.93,53.6563 Q619.2425,54.7188 619.2425,56.8125 Q619.2425,58.9063 619.93,59.9844 Q620.6175,61.0469 621.9613,61.0469 Q622.5863,61.0469 623.18,60.7813 Q623.7738,60.5 624.3988,59.9219 L624.3988,62.6406 Z " fill="#000000"/><text fill="#000000" font-family="sans-serif" font-size="14" lengthAdjust="spacing" textLength="103.1338" x="635.43" y="61.8467">InstagramUser</text><line style="stroke:#181818;stroke-width:0.5;" x1="607.43" x2="740.5638" y1="73" y2="73"/><text fill="#000000" font-family="sans-serif" font-size="14" lengthAdjust="spacing" textLength="82.4688" x="612.43" y="89.9951">user_id : str</text><text fill="#000000" font-family="sans-serif" font-size="14" lengthAdjust="spacing" textLength="100.4404" x="612.43" y="106.292">full_name : str</text><line style="stroke:#181818;stroke-width:0.5;" x1="607.43" x2="740.5638" y1="113.5938" y2="113.5938"/></g><!--class c--><g class="entity" data-entity="c" data-source-line="34" data-uid="ent0010" id="entity_c"><rect fill="#F1F1F1" height="64.2969" rx="2.5" ry="2.5" style="stroke:#181818;stroke-width:0.5;" width="114.0674" x="399.97" y="483.86"/><ellipse cx="419.5205" cy="499.86" fill="#B4A7E5" rx="11" ry="11" style="stroke:#181818;stroke-width:1;"/><path d="M415.4424,495.6256 L415.4424,493.4694 L422.833,493.4694 L422.833,495.6256 L420.3643,495.6256 L420.3643,503.7038 L422.833,503.7038 L422.833,505.86 L415.4424,505.86 L415.4424,503.7038 L417.9112,503.7038 L417.9112,495.6256 L415.4424,495.6256 Z " fill="#000000"/><text fill="#000000" font-family="sans-serif" font-size="14" font-style="italic" lengthAdjust="spacing" textLength="71.9551" x="434.5318" y="504.7067">Command</text><line style="stroke:#181818;stroke-width:0.5;" x1="400.97" x2="513.0374" y1="515.86" y2="515.86"/><line style="stroke:#181818;stroke-width:0.5;" x1="400.97" x2="513.0374" y1="523.86" y2="523.86"/><text fill="#000000" font-family="sans-serif" font-size="14" lengthAdjust="spacing" textLength="102.0674" x="405.97" y="540.8551">execute() : obj</text></g><!--class cf--><g class="entity" data-entity="cf" data-source-line="38" data-uid="ent0011" id="entity_cf"><rect fill="#F1F1F1" height="145.7813" rx="2.5" ry="2.5" style="stroke:#181818;stroke-width:0.5;" width="576.0332" x="385.98" y="624.46"/><ellipse cx="607.5567" cy="640.46" fill="#ADD1B2" rx="11" ry="11" style="stroke:#181818;stroke-width:1;"/><path d="M610.5254,646.1006 Q609.9473,646.3975 609.3067,646.5381 Q608.666,646.6944 607.9629,646.6944 Q605.4629,646.6944 604.1348,645.0538 Q602.8223,643.3975 602.8223,640.2725 Q602.8223,637.1475 604.1348,635.4913 Q605.4629,633.835 607.9629,633.835 Q608.666,633.835 609.3067,633.9913 Q609.9629,634.1475 610.5254,634.4444 L610.5254,637.1631 Q609.9004,636.585 609.3067,636.3194 Q608.7129,636.0381 608.0879,636.0381 Q606.7442,636.0381 606.0567,637.1163 Q605.3692,638.1788 605.3692,640.2725 Q605.3692,642.3663 606.0567,643.4444 Q606.7442,644.5069 608.0879,644.5069 Q608.7129,644.5069 609.3067,644.2413 Q609.9004,643.96 610.5254,643.3819 L610.5254,646.1006 Z " fill="#000000"/><text fill="#000000" font-family="sans-serif" font-size="14" lengthAdjust="spacing" textLength="124.3799" x="628.0567" y="645.3067">CommandFactory</text><line style="stroke:#181818;stroke-width:0.5;" x1="386.98" x2="961.0132" y1="656.46" y2="656.46"/><line style="stroke:#181818;stroke-width:0.5;" x1="386.98" x2="961.0132" y1="664.46" y2="664.46"/><ellipse cx="396.98" cy="678.1084" fill="#84BE84" rx="3" ry="3" style="stroke:#038048;stroke-width:1;"/><text fill="#000000" font-family="sans-serif" font-size="14" lengthAdjust="spacing" textLength="252" x="405.98" y="681.4551">for_create_marionette() : Command</text><ellipse cx="396.98" cy="702.5538" fill="#84BE84" rx="3" ry="3" style="stroke:#038048;stroke-width:1;"/><text fill="#000000" font-family="sans-serif" font-size="14" lengthAdjust="spacing" textLength="411.3662" x="405.98" y="697.752">for_verify_login(marionette : AbstractNavigatorMarionette,</text><text fill="#000000" font-family="sans-serif" font-size="14" lengthAdjust="spacing" textLength="290.6299" x="410.4302" y="714.0489">is_manual_verification : bool) : Command</text><ellipse cx="396.98" cy="735.1475" fill="#84BE84" rx="3" ry="3" style="stroke:#038048;stroke-width:1;"/><text fill="#000000" font-family="sans-serif" font-size="14" lengthAdjust="spacing" textLength="409.0967" x="405.98" y="730.3457">for_scrap_users(marionette: AbstractNavigatorMarionette,</text><text fill="#000000" font-family="sans-serif" font-size="14" lengthAdjust="spacing" textLength="297.2744" x="410.4302" y="746.6426">users_container_selector : str) : Command</text><ellipse cx="396.98" cy="759.5928" fill="#84BE84" rx="3" ry="3" style="stroke:#038048;stroke-width:1;"/><text fill="#000000" font-family="sans-serif" font-size="14" lengthAdjust="spacing" textLength="550.0332" x="405.98" y="762.9395">for_destroy_marionette(marionette: AbstractNavigatorMarionette) : Command</text></g><!--class culn--><g class="entity" data-entity="culn" data-source-line="45" data-uid="ent0012" id="entity_culn"><rect fill="#F1F1F1" height="64.2969" rx="2.5" ry="2.5" style="stroke:#181818;stroke-width:0.5;" width="295.9443" x="526.03" y="830.24"/><ellipse cx="602.5105" cy="846.24" fill="#ADD1B2" rx="11" ry="11" style="stroke:#181818;stroke-width:1;"/><path d="M605.4792,851.8806 Q604.9011,852.1775 604.2605,852.3181 Q603.6198,852.4744 602.9167,852.4744 Q600.4167,852.4744 599.0886,850.8338 Q597.7761,849.1775 597.7761,846.0525 Q597.7761,842.9275 599.0886,841.2713 Q600.4167,839.615 602.9167,839.615 Q603.6198,839.615 604.2605,839.7713 Q604.9167,839.9275 605.4792,840.2244 L605.4792,842.9431 Q604.8542,842.365 604.2605,842.0994 Q603.6667,841.8181 603.0417,841.8181 Q601.698,841.8181 601.0105,842.8963 Q600.323,843.9588 600.323,846.0525 Q600.323,848.1463 601.0105,849.2244 Q601.698,850.2869 603.0417,850.2869 Q603.6667,850.2869 604.2605,850.0213 Q604.8542,849.74 605.4792,849.1619 L605.4792,851.8806 Z " fill="#000000"/><text fill="#000000" font-family="sans-serif" font-size="14" lengthAdjust="spacing" textLength="134.4834" x="623.0105" y="851.0867">CreateUserLikeNav</text><line style="stroke:#181818;stroke-width:0.5;" x1="527.03" x2="820.9743" y1="862.24" y2="862.24"/><line style="stroke:#181818;stroke-width:0.5;" x1="527.03" x2="820.9743" y1="870.24" y2="870.24"/><text fill="#000000" font-family="sans-serif" font-size="14" lengthAdjust="spacing" textLength="283.9443" x="532.03" y="887.2351">execute() : AbstractNavigatorMarionette</text></g><!--class dm--><g class="entity" data-entity="dm" data-source-line="51" data-uid="ent0016" id="entity_dm"><rect fill="#F1F1F1" height="64.2969" rx="2.5" ry="2.5" style="stroke:#181818;stroke-width:0.5;" width="162.7305" x="170.63" y="830.24"/><ellipse cx="185.63" cy="846.24" fill="#ADD1B2" rx="11" ry="11" style="stroke:#181818;stroke-width:1;"/><path d="M188.5988,851.8806 Q188.0206,852.1775 187.38,852.3181 Q186.7394,852.4744 186.0363,852.4744 Q183.5363,852.4744 182.2081,850.8338 Q180.8956,849.1775 180.8956,846.0525 Q180.8956,842.9275 182.2081,841.2713 Q183.5363,839.615 186.0363,839.615 Q186.7394,839.615 187.38,839.7713 Q188.0363,839.9275 188.5988,840.2244 L188.5988,842.9431 Q187.9738,842.365 187.38,842.0994 Q186.7863,841.8181 186.1613,841.8181 Q184.8175,841.8181 184.13,842.8963 Q183.4425,843.9588 183.4425,846.0525 Q183.4425,848.1463 184.13,849.2244 Q184.8175,850.2869 186.1613,850.2869 Q186.7863,850.2869 187.38,850.0213 Q187.9738,849.74 188.5988,849.1619 L188.5988,851.8806 Z " fill="#000000"/><text fill="#000000" font-family="sans-serif" font-size="14" lengthAdjust="spacing" textLength="130.7305" x="199.63" y="851.0867">DestroyMarionette</text><line style="stroke:#181818;stroke-width:0.5;" x1="171.63" x2="332.3605" y1="862.24" y2="862.24"/><line style="stroke:#181818;stroke-width:0.5;" x1="171.63" x2="332.3605" y1="870.24" y2="870.24"/><text fill="#000000" font-family="sans-serif" font-size="14" lengthAdjust="spacing" textLength="110.3525" x="176.63" y="887.2351">execute() : void</text></g><!--class vl--><g class="entity" data-entity="vl" data-source-line="57" data-uid="ent0020" id="entity_vl"><rect fill="#F1F1F1" height="64.2969" rx="2.5" ry="2.5" style="stroke:#181818;stroke-width:0.5;" width="122.3525" x="368.82" y="830.24"/><ellipse cx="388.8996" cy="846.24" fill="#ADD1B2" rx="11" ry="11" style="stroke:#181818;stroke-width:1;"/><path d="M391.8684,851.8806 Q391.2903,852.1775 390.6496,852.3181 Q390.009,852.4744 389.3059,852.4744 Q386.8059,852.4744 385.4778,850.8338 Q384.1653,849.1775 384.1653,846.0525 Q384.1653,842.9275 385.4778,841.2713 Q386.8059,839.615 389.3059,839.615 Q390.009,839.615 390.6496,839.7713 Q391.3059,839.9275 391.8684,840.2244 L391.8684,842.9431 Q391.2434,842.365 390.6496,842.0994 Q390.0559,841.8181 389.4309,841.8181 Q388.0871,841.8181 387.3996,842.8963 Q386.7121,843.9588 386.7121,846.0525 Q386.7121,848.1463 387.3996,849.2244 Q388.0871,850.2869 389.4309,850.2869 Q390.0559,850.2869 390.6496,850.0213 Q391.2434,849.74 391.8684,849.1619 L391.8684,851.8806 Z " fill="#000000"/><text fill="#000000" font-family="sans-serif" font-size="14" lengthAdjust="spacing" textLength="79.0645" x="404.0284" y="851.0867">VerifyLogin</text><line style="stroke:#181818;stroke-width:0.5;" x1="369.82" x2="490.1725" y1="862.24" y2="862.24"/><line style="stroke:#181818;stroke-width:0.5;" x1="369.82" x2="490.1725" y1="870.24" y2="870.24"/><text fill="#000000" font-family="sans-serif" font-size="14" lengthAdjust="spacing" textLength="110.3525" x="374.82" y="887.2351">execute() : void</text></g><!--class sufh--><g class="entity" data-entity="sufh" data-source-line="63" data-uid="ent0024" id="entity_sufh"><rect fill="#F1F1F1" height="64.2969" rx="2.5" ry="2.5" style="stroke:#181818;stroke-width:0.5;" width="180.5654" x="856.72" y="830.24"/><ellipse cx="871.72" cy="846.24" fill="#ADD1B2" rx="11" ry="11" style="stroke:#181818;stroke-width:1;"/><path d="M874.6888,851.8806 Q874.1106,852.1775 873.47,852.3181 Q872.8294,852.4744 872.1263,852.4744 Q869.6263,852.4744 868.2981,850.8338 Q866.9856,849.1775 866.9856,846.0525 Q866.9856,842.9275 868.2981,841.2713 Q869.6263,839.615 872.1263,839.615 Q872.8294,839.615 873.47,839.7713 Q874.1263,839.9275 874.6888,840.2244 L874.6888,842.9431 Q874.0638,842.365 873.47,842.0994 Q872.8763,841.8181 872.2513,841.8181 Q870.9075,841.8181 870.22,842.8963 Q869.5325,843.9588 869.5325,846.0525 Q869.5325,848.1463 870.22,849.2244 Q870.9075,850.2869 872.2513,850.2869 Q872.8763,850.2869 873.47,850.0213 Q874.0638,849.74 874.6888,849.1619 L874.6888,851.8806 Z " fill="#000000"/><text fill="#000000" font-family="sans-serif" font-size="14" lengthAdjust="spacing" textLength="148.5654" x="885.72" y="851.0867">ScrapUsersFromHtml</text><line style="stroke:#181818;stroke-width:0.5;" x1="857.72" x2="1036.2854" y1="862.24" y2="862.24"/><line style="stroke:#181818;stroke-width:0.5;" x1="857.72" x2="1036.2854" y1="870.24" y2="870.24"/><text fill="#000000" font-family="sans-serif" font-size="14" lengthAdjust="spacing" textLength="110.3525" x="862.72" y="887.2351">execute() : void</text></g><!--class susf--><g class="entity" data-entity="susf" data-source-line="70" data-uid="ent0029" id="entity_susf"><rect fill="#F1F1F1" height="96.8906" rx="2.5" ry="2.5" style="stroke:#181818;stroke-width:0.5;" width="309.917" x="548.04" y="954.54"/><ellipse cx="597.2827" cy="970.54" fill="#ADD1B2" rx="11" ry="11" style="stroke:#181818;stroke-width:1;"/><path d="M600.2514,976.1806 Q599.6733,976.4775 599.0327,976.6181 Q598.3921,976.7744 597.6889,976.7744 Q595.1889,976.7744 593.8608,975.1338 Q592.5483,973.4775 592.5483,970.3525 Q592.5483,967.2275 593.8608,965.5713 Q595.1889,963.915 597.6889,963.915 Q598.3921,963.915 599.0327,964.0713 Q599.6889,964.2275 600.2514,964.5244 L600.2514,967.2431 Q599.6264,966.665 599.0327,966.3994 Q598.4389,966.1181 597.8139,966.1181 Q596.4702,966.1181 595.7827,967.1963 Q595.0952,968.2588 595.0952,970.3525 Q595.0952,972.4463 595.7827,973.5244 Q596.4702,974.5869 597.8139,974.5869 Q598.4389,974.5869 599.0327,974.3213 Q599.6264,974.04 600.2514,973.4619 L600.2514,976.1806 Z " fill="#000000"/><text fill="#000000" font-family="sans-serif" font-size="14" lengthAdjust="spacing" textLength="202.9316" x="617.7827" y="975.3867">ScrapUsersStrategiesFactory</text><line style="stroke:#181818;stroke-width:0.5;" x1="549.04" x2="856.957" y1="986.54" y2="986.54"/><line style="stroke:#181818;stroke-width:0.5;" x1="549.04" x2="856.957" y1="994.54" y2="994.54"/><ellipse cx="559.04" cy="1008.1884" fill="#84BE84" rx="3" ry="3" style="stroke:#038048;stroke-width:1;"/><text fill="#000000" font-family="sans-serif" font-size="14" lengthAdjust="spacing" text-decoration="underline" textLength="250.9336" x="568.04" y="1011.5351">for_list_users_dom() : ListUsersDom</text><ellipse cx="559.04" cy="1024.4853" fill="#84BE84" rx="3" ry="3" style="stroke:#038048;stroke-width:1;"/><text fill="#000000" font-family="sans-serif" font-size="14" lengthAdjust="spacing" text-decoration="underline" textLength="283.917" x="568.04" y="1027.832">for_scrap_users_dom() : ScrapUsersDom</text><ellipse cx="559.04" cy="1040.7822" fill="#84BE84" rx="3" ry="3" style="stroke:#038048;stroke-width:1;"/><text fill="#000000" font-family="sans-serif" font-size="14" lengthAdjust="spacing" text-decoration="underline" textLength="220.1445" x="568.04" y="1044.1289">for_refine_users() : RefineUsers</text></g><!--class su_str_lud--><g class="entity" data-entity="su_str_lud" data-source-line="76" data-uid="ent0030" id="entity_su_str_lud"><rect fill="#F1F1F1" height="80.5938" rx="2.5" ry="2.5" style="stroke:#181818;stroke-width:0.5;" width="427.1533" x="46.42" y="1111.43"/><ellipse cx="207.4166" cy="1127.43" fill="#ADD1B2" rx="11" ry="11" style="stroke:#181818;stroke-width:1;"/><path d="M210.3853,1133.0706 Q209.8072,1133.3675 209.1666,1133.5081 Q208.526,1133.6644 207.8228,1133.6644 Q205.3228,1133.6644 203.9947,1132.0238 Q202.6822,1130.3675 202.6822,1127.2425 Q202.6822,1124.1175 203.9947,1122.4613 Q205.3228,1120.805 207.8228,1120.805 Q208.526,1120.805 209.1666,1120.9613 Q209.8228,1121.1175 210.3853,1121.4144 L210.3853,1124.1331 Q209.7603,1123.555 209.1666,1123.2894 Q208.5728,1123.0081 207.9478,1123.0081 Q206.6041,1123.0081 205.9166,1124.0863 Q205.2291,1125.1488 205.2291,1127.2425 Q205.2291,1129.3363 205.9166,1130.4144 Q206.6041,1131.4769 207.9478,1131.4769 Q208.5728,1131.4769 209.1666,1131.2113 Q209.7603,1130.93 210.3853,1130.3519 L210.3853,1133.0706 Z " fill="#000000"/><text fill="#000000" font-family="sans-serif" font-size="14" lengthAdjust="spacing" textLength="96.6602" x="227.9166" y="1132.2767">ListUsersDom</text><line style="stroke:#181818;stroke-width:0.5;" x1="47.42" x2="472.5733" y1="1143.43" y2="1143.43"/><line style="stroke:#181818;stroke-width:0.5;" x1="47.42" x2="472.5733" y1="1151.43" y2="1151.43"/><ellipse cx="57.42" cy="1173.2269" fill="#84BE84" rx="3" ry="3" style="stroke:#038048;stroke-width:1;"/><text fill="#000000" font-family="sans-serif" font-size="14" lengthAdjust="spacing" textLength="210.9023" x="66.42" y="1168.4251">do_list_users_dom(marionette</text><text fill="#000000" font-family="sans-serif" font-size="14" lengthAdjust="spacing" textLength="396.7031" x="70.8702" y="1184.722">: AbstractNavigatorMarionette) : UsersAsDomElements[]</text></g><!--class su_str_ru--><g class="entity" data-entity="su_str_ru" data-source-line="81" data-uid="ent0032" id="entity_su_str_ru"><rect fill="#F1F1F1" height="80.5938" rx="2.5" ry="2.5" style="stroke:#181818;stroke-width:0.5;" width="327.0684" x="508.47" y="1111.43"/><ellipse cx="625.8294" cy="1127.43" fill="#ADD1B2" rx="11" ry="11" style="stroke:#181818;stroke-width:1;"/><path d="M628.7981,1133.0706 Q628.22,1133.3675 627.5794,1133.5081 Q626.9388,1133.6644 626.2356,1133.6644 Q623.7356,1133.6644 622.4075,1132.0238 Q621.095,1130.3675 621.095,1127.2425 Q621.095,1124.1175 622.4075,1122.4613 Q623.7356,1120.805 626.2356,1120.805 Q626.9388,1120.805 627.5794,1120.9613 Q628.2356,1121.1175 628.7981,1121.4144 L628.7981,1124.1331 Q628.1731,1123.555 627.5794,1123.2894 Q626.9856,1123.0081 626.3606,1123.0081 Q625.0169,1123.0081 624.3294,1124.0863 Q623.6419,1125.1488 623.6419,1127.2425 Q623.6419,1129.3363 624.3294,1130.4144 Q625.0169,1131.4769 626.3606,1131.4769 Q626.9856,1131.4769 627.5794,1131.2113 Q628.1731,1130.93 628.7981,1130.3519 L628.7981,1133.0706 Z " fill="#000000"/><text fill="#000000" font-family="sans-serif" font-size="14" lengthAdjust="spacing" textLength="83.8496" x="646.3294" y="1132.2767">RefineUsers</text><line style="stroke:#181818;stroke-width:0.5;" x1="509.47" x2="834.5384" y1="1143.43" y2="1143.43"/><line style="stroke:#181818;stroke-width:0.5;" x1="509.47" x2="834.5384" y1="1151.43" y2="1151.43"/><ellipse cx="519.47" cy="1173.2269" fill="#84BE84" rx="3" ry="3" style="stroke:#038048;stroke-width:1;"/><text fill="#000000" font-family="sans-serif" font-size="14" lengthAdjust="spacing" textLength="286.2344" x="528.47" y="1168.4251">do_refine_users(users_as_dom_elements</text><text fill="#000000" font-family="sans-serif" font-size="14" lengthAdjust="spacing" textLength="296.6182" x="532.9202" y="1184.722">: UsersAsDomElements) : InstagramUser[]</text></g><!--class su_str_sud--><g class="entity" data-entity="su_str_sud" data-source-line="86" data-uid="ent0034" id="entity_su_str_sud"><rect fill="#F1F1F1" height="80.5938" rx="2.5" ry="2.5" style="stroke:#181818;stroke-width:0.5;" width="291.542" x="870.23" y="1111.43"/><ellipse cx="955.7544" cy="1127.43" fill="#ADD1B2" rx="11" ry="11" style="stroke:#181818;stroke-width:1;"/><path d="M958.7232,1133.0706 Q958.145,1133.3675 957.5044,1133.5081 Q956.8638,1133.6644 956.1607,1133.6644 Q953.6607,1133.6644 952.3325,1132.0238 Q951.02,1130.3675 951.02,1127.2425 Q951.02,1124.1175 952.3325,1122.4613 Q953.6607,1120.805 956.1607,1120.805 Q956.8638,1120.805 957.5044,1120.9613 Q958.1607,1121.1175 958.7232,1121.4144 L958.7232,1124.1331 Q958.0982,1123.555 957.5044,1123.2894 Q956.9107,1123.0081 956.2857,1123.0081 Q954.9419,1123.0081 954.2544,1124.0863 Q953.5669,1125.1488 953.5669,1127.2425 Q953.5669,1129.3363 954.2544,1130.4144 Q954.9419,1131.4769 956.2857,1131.4769 Q956.9107,1131.4769 957.5044,1131.2113 Q958.0982,1130.93 958.7232,1130.3519 L958.7232,1133.0706 Z " fill="#000000"/><text fill="#000000" font-family="sans-serif" font-size="14" lengthAdjust="spacing" textLength="111.9932" x="976.2544" y="1132.2767">ScrapUsersDom</text><line style="stroke:#181818;stroke-width:0.5;" x1="871.23" x2="1160.772" y1="1143.43" y2="1143.43"/><line style="stroke:#181818;stroke-width:0.5;" x1="871.23" x2="1160.772" y1="1151.43" y2="1151.43"/><ellipse cx="881.23" cy="1173.2269" fill="#84BE84" rx="3" ry="3" style="stroke:#038048;stroke-width:1;"/><text fill="#000000" font-family="sans-serif" font-size="14" lengthAdjust="spacing" textLength="228.5527" x="890.23" y="1168.4251">do_scrap_users_dom(marionette</text><text fill="#000000" font-family="sans-serif" font-size="14" lengthAdjust="spacing" textLength="261.0918" x="894.6802" y="1184.722">: AbstractNavigatorMarionette) : void</text></g><g class="entity" data-entity="GMN36" data-source-line="91" data-uid="ent0037" id="entity_GMN36"><path d="M924.19,975.28 L924.19,1030.6784 A0,0 0 0 0 924.19,1030.6784 L1012,1030.6784 L1016,1110.97 L1020,1030.6784 L1107.8043,1030.6784 A0,0 0 0 0 1107.8043,1030.6784 L1107.8043,985.28 L1097.8043,975.28 L924.19,975.28 A0,0 0 0 0 924.19,975.28" fill="#FEFFDD" style="stroke:#181818;stroke-width:0.5;"/><path d="M1097.8043,975.28 L1097.8043,985.28 L1107.8043,985.28 L1097.8043,975.28" fill="#FEFFDD" style="stroke:#181818;stroke-width:0.5;"/><text fill="#000000" font-family="sans-serif" font-size="13" lengthAdjust="spacing" textLength="153.8354" x="930.19" y="992.3469">This class makes use of</text><text fill="#000000" font-family="sans-serif" font-size="13" lengthAdjust="spacing" textLength="162.6143" x="930.19" y="1007.4797">environment parameters</text><text fill="#000000" font-family="sans-serif" font-size="13" lengthAdjust="spacing" textLength="139.2993" x="930.19" y="1022.6125">related to wait times.</text></g><!--class macro_nfb--><g class="entity" data-entity="macro_nfb" data-source-line="101" data-uid="ent0040" id="entity_macro_nfb"><rect fill="#F1F1F1" height="129.4844" rx="2.5" ry="2.5" style="stroke:#181818;stroke-width:0.5;" width="306.3418" x="520.83" y="237.34"/><ellipse cx="566.5214" cy="253.34" fill="#ADD1B2" rx="11" ry="11" style="stroke:#181818;stroke-width:1;"/><path d="M569.4902,258.9806 Q568.912,259.2775 568.2714,259.4181 Q567.6308,259.5744 566.9277,259.5744 Q564.4277,259.5744 563.0995,257.9338 Q561.787,256.2775 561.787,253.1525 Q561.787,250.0275 563.0995,248.3713 Q564.4277,246.715 566.9277,246.715 Q567.6308,246.715 568.2714,246.8713 Q568.9277,247.0275 569.4902,247.3244 L569.4902,250.0431 Q568.8652,249.465 568.2714,249.1994 Q567.6777,248.9181 567.0527,248.9181 Q565.7089,248.9181 565.0214,249.9963 Q564.3339,251.0588 564.3339,253.1525 Q564.3339,255.2463 565.0214,256.3244 Q565.7089,257.3869 567.0527,257.3869 Q567.6777,257.3869 568.2714,257.1213 Q568.8652,256.84 569.4902,256.2619 L569.4902,258.9806 Z " fill="#000000"/><text fill="#000000" font-family="sans-serif" font-size="14" lengthAdjust="spacing" textLength="206.459" x="587.0214" y="258.1867">MacroUsersNotFollowingBack</text><line style="stroke:#181818;stroke-width:0.5;" x1="521.83" x2="826.1718" y1="269.34" y2="269.34"/><text fill="#000000" font-family="sans-serif" font-size="14" lengthAdjust="spacing" textLength="294.3418" x="526.83" y="286.3351">marionette : AbstractNavigatorMarionette</text><text fill="#000000" font-family="sans-serif" font-size="14" lengthAdjust="spacing" textLength="190.627" x="526.83" y="302.632">followers : InstagramUser[]</text><text fill="#000000" font-family="sans-serif" font-size="14" lengthAdjust="spacing" textLength="190.6133" x="526.83" y="318.9289">following : InstagramUser[]</text><text fill="#000000" font-family="sans-serif" font-size="14" lengthAdjust="spacing" textLength="173.667" x="526.83" y="335.2257">commands : Command[]</text><line style="stroke:#181818;stroke-width:0.5;" x1="521.83" x2="826.1718" y1="342.5275" y2="342.5275"/><text fill="#000000" font-family="sans-serif" font-size="14" lengthAdjust="spacing" textLength="102.0674" x="526.83" y="359.5226">execute() : obj</text></g><path d="M254.43,276.95 L254.43,317.2156 A0,0 0 0 0 254.43,317.2156 L485.5692,317.2156 A0,0 0 0 0 485.5692,317.2156 L485.5692,301.0828 L524.83,354.6759 L485.5692,293.0828 L485.5692,286.95 L475.5692,276.95 L254.43,276.95 A0,0 0 0 0 254.43,276.95" fill="#FEFFDD" style="stroke:#181818;stroke-width:0.5;"/><path d="M475.5692,276.95 L475.5692,286.95 L485.5692,286.95 L475.5692,276.95" fill="#FEFFDD" style="stroke:#181818;stroke-width:0.5;"/><text fill="#000000" font-family="sans-serif" font-size="13" lengthAdjust="spacing" textLength="210.1392" x="260.43" y="294.0169">for command in self.commands:</text><text fill="#000000" font-family="sans-serif" font-size="13" lengthAdjust="spacing" textLength="131.333" x="268.6946" y="309.1497">command.execute()</text><!--reverse link anm to ulmen--><g class="link" data-entity-1="anm" data-entity-2="ulmen" data-source-line="22" data-uid="lnk6" id="link_anm_ulmen"><path codeLine="22" d="M1416,425.81 C1416,446.56 1416,449.37 1416,467.07" fill="none" id="anm-backto-ulmen" style="stroke:#181818;stroke-width:1;"/><polygon fill="none" points="1416,407.81,1410,425.81,1422,425.81,1416,407.81" style="stroke:#181818;stroke-width:1;"/></g><!--reverse link c to culn--><g class="link" data-entity-1="c" data-entity-2="culn" data-source-line="48" data-uid="lnk14" id="link_c_culn"><path codeLine="48" d="M408.0733,561.089 C388.3433,580.699 378.59,595.06 368,624.46 C346.03,685.41 329.27,718.29 368,770.24 C379.22,785.29 464.29,809.95 541.89,829.82" fill="none" id="c-backto-culn" style="stroke:#181818;stroke-width:1;"/><polygon fill="none" points="420.84,548.4,403.8436,556.8335,412.303,565.3446,420.84,548.4" style="stroke:#181818;stroke-width:1;"/></g><!--link cf to culn--><g class="link" data-entity-1="cf" data-entity-2="culn" data-source-line="49" data-uid="lnk15" id="link_cf_culn"><path codeLine="49" d="M674,770.33 C674,791.15 674,806.8 674,823.77" fill="none" id="cf-to-culn" style="stroke:#181818;stroke-width:1;"/><polygon fill="#181818" points="674,829.77,678,820.77,674,824.77,670,820.77,674,829.77" style="stroke:#181818;stroke-width:1;"/></g><!--reverse link c to dm--><g class="link" data-entity-1="c" data-entity-2="dm" data-source-line="54" data-uid="lnk18" id="link_c_dm"><path codeLine="54" d="M384.3566,557.0709 C354.6966,575.6109 335.55,592.36 314,624.46 C270.75,688.88 257.66,781.86 253.7,829.94" fill="none" id="c-backto-dm" style="stroke:#181818;stroke-width:1;"/><polygon fill="none" points="399.62,547.53,381.1763,551.9831,387.5369,562.1587,399.62,547.53" style="stroke:#181818;stroke-width:1;"/></g><!--link cf to dm--><g class="link" data-entity-1="cf" data-entity-2="dm" data-source-line="55" data-uid="lnk19" id="link_cf_dm"><path codeLine="55" d="M486.75,770.69 C433.11,791.41 382.9968,810.7776 339.3068,827.6576" fill="none" id="cf-to-dm" style="stroke:#181818;stroke-width:1;"/><polygon fill="#181818" points="333.71,829.82,343.5468,830.3076,338.374,828.018,340.6636,822.8452,333.71,829.82" style="stroke:#181818;stroke-width:1;"/></g><!--reverse link c to vl--><g class="link" data-entity-1="c" data-entity-2="vl" data-source-line="60" data-uid="lnk22" id="link_c_vl"><path codeLine="60" d="M392.473,559.4306 C367.663,578.1206 354.57,593.39 341,624.46 C315.06,683.83 316.56,710.23 341,770.24 C350.51,793.59 369.2,814.22 387.01,829.92" fill="none" id="c-backto-vl" style="stroke:#181818;stroke-width:1;"/><polygon fill="none" points="406.85,548.6,388.8628,554.6382,396.0832,564.2229,406.85,548.6" style="stroke:#181818;stroke-width:1;"/></g><!--link cf to vl--><g class="link" data-entity-1="cf" data-entity-2="vl" data-source-line="61" data-uid="lnk23" id="link_cf_vl"><path codeLine="61" d="M565.91,770.57 C534.81,791.35 507.4681,809.6154 482.1581,826.5354" fill="none" id="cf-to-vl" style="stroke:#181818;stroke-width:1;"/><polygon fill="#181818" points="477.17,829.87,486.8751,828.1935,481.3267,827.0912,482.429,821.5428,477.17,829.87" style="stroke:#181818;stroke-width:1;"/></g><!--reverse link c to sufh--><g class="link" data-entity-1="c" data-entity-2="sufh" data-source-line="66" data-uid="lnk26" id="link_c_sufh"><path codeLine="66" d="M532.0651,521.0799 C655.2651,528.7599 921.64,552.89 980,624.46 C1028.29,683.68 990.12,780.17 964.82,829.76" fill="none" id="c-backto-sufh" style="stroke:#181818;stroke-width:1;"/><polygon fill="none" points="514.1,519.96,531.6918,527.0683,532.4384,515.0915,514.1,519.96" style="stroke:#181818;stroke-width:1;"/></g><!--link cf to sufh--><g class="link" data-entity-1="cf" data-entity-2="sufh" data-source-line="67" data-uid="lnk27" id="link_cf_sufh"><path codeLine="67" d="M794.93,770.57 C829.73,791.35 860.7488,809.8735 889.0788,826.7935" fill="none" id="cf-to-sufh" style="stroke:#181818;stroke-width:1;"/><polygon fill="#181818" points="894.23,829.87,888.5542,821.8211,889.9373,827.3062,884.4522,828.6893,894.23,829.87" style="stroke:#181818;stroke-width:1;"/></g><!--link susf to su_str_lud--><g class="link" data-entity-1="susf" data-entity-2="su_str_lud" data-source-line="79" data-uid="lnk31" id="link_susf_su_str_lud"><path codeLine="79" d="M558.56,1051.83 C500.74,1070.98 440.6054,1090.8926 385.5054,1109.1526" fill="none" id="susf-to-su_str_lud" style="stroke:#181818;stroke-width:1;"/><polygon fill="#181818" points="379.81,1111.04,389.6114,1112.0058,384.5562,1109.4671,387.0948,1104.4119,379.81,1111.04" style="stroke:#181818;stroke-width:1;"/></g><!--link susf to su_str_ru--><g class="link" data-entity-1="susf" data-entity-2="su_str_ru" data-source-line="84" data-uid="lnk33" id="link_susf_su_str_ru"><path codeLine="84" d="M692.94,1051.62 C688.87,1070.87 685.4682,1086.9491 681.5982,1105.2991" fill="none" id="susf-to-su_str_ru" style="stroke:#181818;stroke-width:1;"/><polygon fill="#181818" points="680.36,1111.17,686.1311,1103.1892,681.3918,1106.2776,678.3033,1101.5383,680.36,1111.17" style="stroke:#181818;stroke-width:1;"/></g><!--link susf to su_str_sud--><g class="link" data-entity-1="susf" data-entity-2="su_str_sud" data-source-line="89" data-uid="lnk35" id="link_susf_su_str_sud"><path codeLine="89" d="M805.05,1051.83 C845.91,1070.98 886.9879,1090.2321 925.9179,1108.4921" fill="none" id="susf-to-su_str_sud" style="stroke:#181818;stroke-width:1;"/><polygon fill="#181818" points="931.35,1111.04,924.9004,1103.5967,926.8232,1108.9167,921.5032,1110.8395,931.35,1111.04" style="stroke:#181818;stroke-width:1;"/></g><!--link sufh to susf--><g class="link" data-entity-1="sufh" data-entity-2="susf" data-source-line="96" data-uid="lnk39" id="link_sufh_susf"><path codeLine="96" d="M891.33,895.01 C860.52,912.51 826.8376,931.6475 792.3876,951.2075" fill="none" id="sufh-to-susf" style="stroke:#181818;stroke-width:1;"/><polygon fill="#181818" points="787.17,954.17,796.9714,953.2047,791.518,951.7013,793.0215,946.2479,787.17,954.17" style="stroke:#181818;stroke-width:1;"/></g><!--link macro_nfb to anm--><g class="link" data-entity-1="macro_nfb" data-entity-2="anm" data-source-line="115" data-uid="lnk43" id="link_macro_nfb_anm"><path codeLine="115" d="M827.62,302.08 C965.71,302.08 1091.8,302.08 1229.9,302.08" fill="none" id="macro_nfb-to-anm" style="stroke:#181818;stroke-width:1;"/><polygon fill="#181818" points="1241.9,302.08,1235.9,298.08,1229.9,302.08,1235.9,306.08,1241.9,302.08" style="stroke:#181818;stroke-width:1;"/><text fill="#000000" font-family="sans-serif" font-size="13" lengthAdjust="spacing" textLength="8.271" x="835.2612" y="298.7867">1</text><text fill="#000000" font-family="sans-serif" font-size="13" lengthAdjust="spacing" textLength="8.271" x="1226.392" y="298.8331">1</text></g><!--reverse link user to macro_nfb--><g class="link" data-entity-1="user" data-entity-2="macro_nfb" data-source-line="116" data-uid="lnk45" id="link_user_macro_nfb"><path codeLine="116" d="M674,133.92 C674,165.94 674,199.64 674,236.87" fill="none" id="user-backto-macro_nfb" style="stroke:#181818;stroke-width:1;"/><polygon fill="#181818" points="674,121.92,670,127.92,674,133.92,678,127.92,674,121.92" style="stroke:#181818;stroke-width:1;"/><text fill="#000000" font-family="sans-serif" font-size="13" lengthAdjust="spacing" textLength="9.7246" x="664.341" y="141.6671">N</text><text fill="#000000" font-family="sans-serif" font-size="13" lengthAdjust="spacing" textLength="8.271" x="665.6014" y="226.4453">1</text></g><!--link macro_nfb to c--><g class="link" data-entity-1="macro_nfb" data-entity-2="c" data-source-line="117" data-uid="lnk46" id="link_macro_nfb_c"><path codeLine="117" d="M608.3,367.24 C568.88,405.74 529.0762,444.6269 497.7962,475.1669" fill="none" id="macro_nfb-to-c" style="stroke:#181818;stroke-width:1;"/><polygon fill="#181818" points="489.21,483.55,496.2975,482.2205,497.7962,475.1669,490.7087,476.4964,489.21,483.55" style="stroke:#181818;stroke-width:1;"/><text fill="#000000" font-family="sans-serif" font-size="13" lengthAdjust="spacing" textLength="8.271" x="593.1261" y="386.8066">1</text><text fill="#000000" font-family="sans-serif" font-size="13" lengthAdjust="spacing" textLength="9.7246" x="485.736" y="472.7632">N</text></g><!--link c to cf--><g class="link" data-entity-1="c" data-entity-2="cf" data-source-line="119" data-uid="lnk47" id="link_c_cf"><path codeLine="119" d="M494.8,548.25 C520.18,569.22 545.4499,590.1057 577.4199,616.5257" fill="none" id="c-to-cf" style="stroke:#181818;stroke-width:1;"/><polygon fill="#181818" points="586.67,624.17,584.593,617.2645,577.4199,616.5257,579.4968,623.4312,586.67,624.17" style="stroke:#181818;stroke-width:1;"/><text fill="#000000" font-family="sans-serif" font-size="13" lengthAdjust="spacing" textLength="9.7246" x="492.4265" y="568.1541">N</text><text fill="#000000" font-family="sans-serif" font-size="13" lengthAdjust="spacing" textLength="8.271" x="569.6934" y="613.3014">1</text></g><!--link macro_nfb to cf--><g class="link" data-entity-1="macro_nfb" data-entity-2="cf" data-source-line="120" data-uid="lnk48" id="link_macro_nfb_cf"><path codeLine="120" d="M674,367.14 C674,437.55 674,538.41 674,611.97" fill="none" id="macro_nfb-to-cf" style="stroke:#181818;stroke-width:1;"/><polygon fill="#181818" points="674,623.97,678,617.97,674,611.97,670,617.97,674,623.97" style="stroke:#181818;stroke-width:1;"/><text fill="#000000" font-family="sans-serif" font-size="13" lengthAdjust="spacing" textLength="9.7246" x="664.5732" y="386.6963">N</text><text fill="#000000" font-family="sans-serif" font-size="13" lengthAdjust="spacing" textLength="8.271" x="665.632" y="613.3343">1</text></g><!--SRC=[bLPBZzCw5DxdLrXTbGiTYMqNIBn68CtC0YviBiXoRISruzZ5TZgCOFxxFJvs4YSD7LYrEQ_lEo_R1yPlMIF9gcLEMID3a2l2F1a_oS-A4BRpmJ4U2DVCUx9wcRzls54rB5XtFNLdfaK_GkxaJZXrb8uUMDYJBG57L7GUP885HeLoXLn8pUwfhS6-aLHR9a2fJAXGwsMWfnPh52Mx9_1pj4gWUGFc-z1gogq9qeJramB99F9otJcTnC_87LC1_k-irPD0lIrbHj1eH6lh9AGrEa_ikLRyTiszfrvgoQ52Zo5uxgpMLDWxyrT-tpkLqigIXrYetAPFKEChTIkl_LlHI6WMDgVJhJIvFSf0AlOGe7b-FOcB6l0_AYuNDAcf9y0fzgOxR7wzY5DGWRGwz4C67L11IOyq-WzaaWc_Dpwmnh4sCazauK_cYXEZHD71keEA6TRAGVOG0GSyRjiM6fRm-W-C1eCYNSqu6BrEycIJeUGFoRkGyhQxRxEoPezB5ljpdnphxFaKve9o9-EiZ4k4WRBRQ0O5LFKzJ72ZpBhOk2qvir_FlXYYFCGs7TCfXE8iDh2OZXCec2vseB62la1w50WTS7cOCb3zwL0k8Wa96djV9l-7WDDmau9ZFVjfxkUOTzeizEiC0eOboJ7FA8_VDTd4lTkyG5K1_2ObCplTHBi0Esm1YVhbwA8jOd_6xb_5vcFKepuV5VJBKO-wYFenDZfMobywsxw3im-3-wxUdm-F5ii0KHKXXhto0yX5h7MGJR_KlgCWoKWdb3uEnkNk-CxtsmCpz1DEWA3uGvmbhNn8GmldOekChq24iTxOTicb6FJ1PoJm6oSdQnZll1xHumCAq0Nj7weoeP93aJNLdHZp47PEVro3BuOykWa8y392lDKI3jNW__kQkU1r4OksmURqs1EEHGObHTTD64uIJqmPagKoWoBLKowHuUImFalETTNoGCmAw6S5d3VpxoeuN5ZBf00iNUqMZjnW3yJMSnKX_-wLpxHRTYlnFWB3h9Ncg9mriIAm75096Vg98SJ1coH80Q7JtHrKA_r5Ma4Z43Q_QN3pa9Yl-pkiohMwPl0km5hTs709BmHxfqpp2ZOnlzD0JKszmxhzwHq2fZM6Wh2BZQnxe4NjS9CEvpM8gzDR4zB0ucfPXrZTWUnscqqHolK1uLQ61vwkBtg0RPgQz7KnXA_6-etvhvwloCQfPXys_-17V7tCr72wWUvcXVVQN8c7NL9pA3_-6OHWmElIuqJvFm00]--></g></svg>