<svg xmlns="http://www.w3.org/2000/svg" xmlns:xlink="http://www.w3.org/1999/xlink" contentStyleType="text/css" data-diagram-type="CLASS" height="1082px" preserveAspectRatio="none" style="width:1613px;height:1082px;background:#FFFFFF;" version="1.1" viewBox="0 0 1613 1082" width="1613px" zoomAndPan="magnify"><defs/><g><!--cluster marionette--><g class="cluster" data-entity="marionette" data-source-line="1" data-uid="ent0002" id="cluster_marionette"><path d="M1228.5,161.6 L1317.1982,161.6 A3.75,3.75 0 0 1 1319.6982,164.1 L1326.6982,183.8969 L1603.5,183.8969 A2.5,2.5 0 0 1 1606,186.3969 L1606,602.4 A2.5,2.5 0 0 1 1603.5,604.9 L1228.5,604.9 A2.5,2.5 0 0 1 1226,602.4 L1226,164.1 A2.5,2.5 0 0 1 1228.5,161.6" fill="none" style="stroke:#000000;stroke-width:1.5;"/><line style="stroke:#000000;stroke-width:1.5;" x1="1226" x2="1326.6982" y1="183.8969" y2="183.8969"/><text fill="#000000" font-family="sans-serif" font-size="14" font-weight="bold" lengthAdjust="spacing" textLength="87.6982" x="1230" y="176.5951">marionette</text></g><!--cluster entities--><g class="cluster" data-entity="entities" data-source-line="26" data-uid="ent0007" id="cluster_entities"><path d="M766.5,6 L827.7725,6 A3.75,3.75 0 0 1 830.2725,8.5 L837.2725,28.2969 L929.5,28.2969 A2.5,2.5 0 0 1 932,30.7969 L932,135.1 A2.5,2.5 0 0 1 929.5,137.6 L766.5,137.6 A2.5,2.5 0 0 1 764,135.1 L764,8.5 A2.5,2.5 0 0 1 766.5,6" fill="none" style="stroke:#000000;stroke-width:1.5;"/><line style="stroke:#000000;stroke-width:1.5;" x1="764" x2="837.2725" y1="28.2969" y2="28.2969"/><text fill="#000000" font-family="sans-serif" font-size="14" font-weight="bold" lengthAdjust="spacing" textLength="60.2725" x="768" y="20.9951">entities</text></g><!--cluster commands--><g class="cluster" data-entity="commands" data-source-line="33" data-uid="ent0009" id="cluster_commands"><path d="M8.5,432.57 L94.3613,432.57 A3.75,3.75 0 0 1 96.8613,435.07 L103.8613,454.8669 L1199.5,454.8669 A2.5,2.5 0 0 1 1202,457.3669 L1202,1072.63 A2.5,2.5 0 0 1 1199.5,1075.13 L8.5,1075.13 A2.5,2.5 0 0 1 6,1072.63 L6,435.07 A2.5,2.5 0 0 1 8.5,432.57" fill="none" style="stroke:#000000;stroke-width:1.5;"/><line style="stroke:#000000;stroke-width:1.5;" x1="6" x2="103.8613" y1="454.8669" y2="454.8669"/><text fill="#000000" font-family="sans-serif" font-size="14" font-weight="bold" lengthAdjust="spacing" textLength="84.8613" x="10" y="447.5651">commands</text></g><!--cluster su_str--><g class="cluster" data-entity="su_str" data-source-line="69" data-uid="ent0028" id="cluster_su_str"><path d="M32.5,762.65 L206.4697,762.65 A3.75,3.75 0 0 1 208.9697,765.15 L215.9697,784.9469 L1175.5,784.9469 A2.5,2.5 0 0 1 1178,787.4469 L1178,1048.63 A2.5,2.5 0 0 1 1175.5,1051.13 L32.5,1051.13 A2.5,2.5 0 0 1 30,1048.63 L30,765.15 A2.5,2.5 0 0 1 32.5,762.65" fill="none" style="stroke:#000000;stroke-width:1.5;"/><line style="stroke:#000000;stroke-width:1.5;" x1="30" x2="215.9697" y1="784.9469" y2="784.9469"/><text fill="#000000" font-family="sans-serif" font-size="14" font-weight="bold" lengthAdjust="spacing" textLength="172.9697" x="34" y="777.6451">scrapUsers.strategies</text></g><!--class anm--><g class="entity" data-entity="anm" data-source-line="2" data-uid="ent0003" id="entity_anm"><rect fill="#F1F1F1" height="210.9688" rx="2.5" ry="2.5" style="stroke:#181818;stroke-width:0.5;" width="347.2275" x="1242.39" y="196.6"/><ellipse cx="1310.1444" cy="212.6" fill="#A9DCDF" rx="11" ry="11" style="stroke:#181818;stroke-width:1;"/><path d="M1310.2538,207.9438 L1309.0975,213.0219 L1311.4256,213.0219 L1310.2538,207.9438 Z M1308.7694,205.7094 L1311.7538,205.7094 L1315.1131,218.1 L1312.66,218.1 L1311.8944,215.0375 L1308.6131,215.0375 L1307.8631,218.1 L1305.4256,218.1 L1308.7694,205.7094 Z " fill="#000000"/><text fill="#000000" font-family="sans-serif" font-size="14" font-style="italic" lengthAdjust="spacing" textLength="203.2188" x="1330.6444" y="217.4467">AbstractNavigatorMarionette</text><line style="stroke:#181818;stroke-width:0.5;" x1="1243.39" x2="1588.6175" y1="228.6" y2="228.6"/><text fill="#000000" font-family="sans-serif" font-size="14" lengthAdjust="spacing" textLength="141.1211" x="1248.39" y="245.5951">webdriver_path : str</text><text fill="#000000" font-family="sans-serif" font-size="14" lengthAdjust="spacing" textLength="126.7588" x="1248.39" y="261.892">user_data_dir : str</text><text fill="#000000" font-family="sans-serif" font-size="14" lengthAdjust="spacing" textLength="169.5039" x="1248.39" y="278.1889">delay_of_page_load : int</text><line style="stroke:#181818;stroke-width:0.5;" x1="1243.39" x2="1588.6175" y1="285.4906" y2="285.4906"/><text fill="#000000" font-family="sans-serif" font-size="14" lengthAdjust="spacing" textLength="290.3223" x="1248.39" y="302.4857">set_delay_of_page_load(delay : int) : void</text><text fill="#000000" font-family="sans-serif" font-size="14" lengthAdjust="spacing" textLength="165.5596" x="1248.39" y="318.7826">get_html_content() : str</text><text fill="#000000" font-family="sans-serif" font-size="14" lengthAdjust="spacing" textLength="247.8711" x="1248.39" y="335.0795">navigate(url : str, wait : bool) : void</text><text fill="#000000" font-family="sans-serif" font-size="14" lengthAdjust="spacing" textLength="293.3027" x="1248.39" y="351.3764">navigate_and_wait_forever(url : str) : void</text><text fill="#000000" font-family="sans-serif" font-size="14" lengthAdjust="spacing" textLength="284.6416" x="1248.39" y="367.6732">click(css_selector : str, wait : bool) : void</text><text fill="#000000" font-family="sans-serif" font-size="14" lengthAdjust="spacing" textLength="335.2275" x="1248.39" y="383.9701">scroll_down(css_selector : str, wait : bool) : void</text><text fill="#000000" font-family="sans-serif" font-size="14" lengthAdjust="spacing" textLength="81.3066" x="1248.39" y="400.267">quit() : void</text></g><!--class ulmen--><g class="entity" data-entity="ulmen" data-source-line="16" data-uid="ent0004" id="entity_ulmen"><rect fill="#F1F1F1" height="96.8906" rx="2.5" ry="2.5" style="stroke:#181818;stroke-width:0.5;" width="174.2627" x="1328.87" y="492.01"/><ellipse cx="1343.87" cy="508.01" fill="#ADD1B2" rx="11" ry="11" style="stroke:#181818;stroke-width:1;"/><path d="M1346.8388,513.6506 Q1346.2606,513.9475 1345.62,514.0881 Q1344.9794,514.2444 1344.2763,514.2444 Q1341.7763,514.2444 1340.4481,512.6038 Q1339.1356,510.9475 1339.1356,507.8225 Q1339.1356,504.6975 1340.4481,503.0413 Q1341.7763,501.385 1344.2763,501.385 Q1344.9794,501.385 1345.62,501.5413 Q1346.2763,501.6975 1346.8388,501.9944 L1346.8388,504.7131 Q1346.2138,504.135 1345.62,503.8694 Q1345.0263,503.5881 1344.4013,503.5881 Q1343.0575,503.5881 1342.37,504.6663 Q1341.6825,505.7288 1341.6825,507.8225 Q1341.6825,509.9163 1342.37,510.9944 Q1343.0575,512.0569 1344.4013,512.0569 Q1345.0263,512.0569 1345.62,511.7913 Q1346.2138,511.51 1346.8388,510.9319 L1346.8388,513.6506 Z " fill="#000000"/><text fill="#000000" font-family="sans-serif" font-size="14" lengthAdjust="spacing" textLength="142.2627" x="1357.87" y="512.8567">UserLikeMsEdgeNav</text><line style="stroke:#181818;stroke-width:0.5;" x1="1329.87" x2="1502.1327" y1="524.01" y2="524.01"/><line style="stroke:#181818;stroke-width:0.5;" x1="1329.87" x2="1502.1327" y1="532.01" y2="532.01"/><text fill="#000000" font-family="sans-serif" font-size="14" lengthAdjust="spacing" textLength="134.873" x="1334.87" y="549.0051">init_options() : void</text><text fill="#000000" font-family="sans-serif" font-size="14" lengthAdjust="spacing" textLength="133.458" x="1334.87" y="565.302">init_service() : void</text><text fill="#000000" font-family="sans-serif" font-size="14" lengthAdjust="spacing" textLength="124.4961" x="1334.87" y="581.5989">init_driver() : void</text></g><!--class user--><g class="entity" data-entity="user" data-source-line="27" data-uid="ent0008" id="entity_user"><rect fill="#F1F1F1" height="80.5938" rx="2.5" ry="2.5" style="stroke:#181818;stroke-width:0.5;" width="135.1338" x="780.43" y="41"/><ellipse cx="795.43" cy="57" fill="#ADD1B2" rx="11" ry="11" style="stroke:#181818;stroke-width:1;"/><path d="M798.3988,62.6406 Q797.8206,62.9375 797.18,63.0781 Q796.5394,63.2344 795.8363,63.2344 Q793.3363,63.2344 792.0081,61.5938 Q790.6956,59.9375 790.6956,56.8125 Q790.6956,53.6875 792.0081,52.0313 Q793.3363,50.375 795.8363,50.375 Q796.5394,50.375 797.18,50.5313 Q797.8363,50.6875 798.3988,50.9844 L798.3988,53.7031 Q797.7738,53.125 797.18,52.8594 Q796.5863,52.5781 795.9613,52.5781 Q794.6175,52.5781 793.93,53.6563 Q793.2425,54.7188 793.2425,56.8125 Q793.2425,58.9063 793.93,59.9844 Q794.6175,61.0469 795.9613,61.0469 Q796.5863,61.0469 797.18,60.7813 Q797.7738,60.5 798.3988,59.9219 L798.3988,62.6406 Z " fill="#000000"/><text fill="#000000" font-family="sans-serif" font-size="14" lengthAdjust="spacing" textLength="103.1338" x="809.43" y="61.8467">InstagramUser</text><line style="stroke:#181818;stroke-width:0.5;" x1="781.43" x2="914.5638" y1="73" y2="73"/><text fill="#000000" font-family="sans-serif" font-size="14" lengthAdjust="spacing" textLength="82.4688" x="786.43" y="89.9951">user_id : str</text><text fill="#000000" font-family="sans-serif" font-size="14" lengthAdjust="spacing" textLength="100.4404" x="786.43" y="106.292">full_name : str</text><line style="stroke:#181818;stroke-width:0.5;" x1="781.43" x2="914.5638" y1="113.5938" y2="113.5938"/></g><!--class c--><g class="entity" data-entity="c" data-source-line="34" data-uid="ent0010" id="entity_c"><rect fill="#F1F1F1" height="64.2969" rx="2.5" ry="2.5" style="stroke:#181818;stroke-width:0.5;" width="114.0674" x="410.97" y="508.31"/><ellipse cx="430.5205" cy="524.31" fill="#B4A7E5" rx="11" ry="11" style="stroke:#181818;stroke-width:1;"/><path d="M426.4424,520.0756 L426.4424,517.9194 L433.833,517.9194 L433.833,520.0756 L431.3643,520.0756 L431.3643,528.1538 L433.833,528.1538 L433.833,530.31 L426.4424,530.31 L426.4424,528.1538 L428.9112,528.1538 L428.9112,520.0756 L426.4424,520.0756 Z " fill="#000000"/><text fill="#000000" font-family="sans-serif" font-size="14" font-style="italic" lengthAdjust="spacing" textLength="71.9551" x="445.5318" y="529.1567">Command</text><line style="stroke:#181818;stroke-width:0.5;" x1="411.97" x2="524.0374" y1="540.31" y2="540.31"/><line style="stroke:#181818;stroke-width:0.5;" x1="411.97" x2="524.0374" y1="548.31" y2="548.31"/><text fill="#000000" font-family="sans-serif" font-size="14" lengthAdjust="spacing" textLength="102.0674" x="416.97" y="565.3051">execute() : obj</text></g><!--class cf--><g class="entity" data-entity="cf" data-source-line="38" data-uid="ent0011" id="entity_cf"><rect fill="#F1F1F1" height="145.7813" rx="2.5" ry="2.5" style="stroke:#181818;stroke-width:0.5;" width="576.0332" x="559.98" y="467.57"/><ellipse cx="781.5567" cy="483.57" fill="#ADD1B2" rx="11" ry="11" style="stroke:#181818;stroke-width:1;"/><path d="M784.5254,489.2106 Q783.9473,489.5075 783.3067,489.6481 Q782.666,489.8044 781.9629,489.8044 Q779.4629,489.8044 778.1348,488.1638 Q776.8223,486.5075 776.8223,483.3825 Q776.8223,480.2575 778.1348,478.6013 Q779.4629,476.945 781.9629,476.945 Q782.666,476.945 783.3067,477.1013 Q783.9629,477.2575 784.5254,477.5544 L784.5254,480.2731 Q783.9004,479.695 783.3067,479.4294 Q782.7129,479.1481 782.0879,479.1481 Q780.7442,479.1481 780.0567,480.2263 Q779.3692,481.2888 779.3692,483.3825 Q779.3692,485.4763 780.0567,486.5544 Q780.7442,487.6169 782.0879,487.6169 Q782.7129,487.6169 783.3067,487.3513 Q783.9004,487.07 784.5254,486.4919 L784.5254,489.2106 Z " fill="#000000"/><text fill="#000000" font-family="sans-serif" font-size="14" lengthAdjust="spacing" textLength="124.3799" x="802.0567" y="488.4167">CommandFactory</text><line style="stroke:#181818;stroke-width:0.5;" x1="560.98" x2="1135.0132" y1="499.57" y2="499.57"/><line style="stroke:#181818;stroke-width:0.5;" x1="560.98" x2="1135.0132" y1="507.57" y2="507.57"/><ellipse cx="570.98" cy="521.2184" fill="#84BE84" rx="3" ry="3" style="stroke:#038048;stroke-width:1;"/><text fill="#000000" font-family="sans-serif" font-size="14" lengthAdjust="spacing" text-decoration="underline" textLength="252" x="579.98" y="524.5651">for_create_marionette() : Command</text><ellipse cx="570.98" cy="545.6638" fill="#84BE84" rx="3" ry="3" style="stroke:#038048;stroke-width:1;"/><text fill="#000000" font-family="sans-serif" font-size="14" lengthAdjust="spacing" text-decoration="underline" textLength="411.3662" x="579.98" y="540.862">for_verify_login(marionette : AbstractNavigatorMarionette,</text><text fill="#000000" font-family="sans-serif" font-size="14" lengthAdjust="spacing" text-decoration="underline" textLength="290.6299" x="584.4302" y="557.1589">is_manual_verification : bool) : Command</text><ellipse cx="570.98" cy="578.2575" fill="#84BE84" rx="3" ry="3" style="stroke:#038048;stroke-width:1;"/><text fill="#000000" font-family="sans-serif" font-size="14" lengthAdjust="spacing" text-decoration="underline" textLength="409.0967" x="579.98" y="573.4557">for_scrap_users(marionette: AbstractNavigatorMarionette,</text><text fill="#000000" font-family="sans-serif" font-size="14" lengthAdjust="spacing" text-decoration="underline" textLength="297.2744" x="584.4302" y="589.7526">users_container_selector : str) : Command</text><ellipse cx="570.98" cy="602.7028" fill="#84BE84" rx="3" ry="3" style="stroke:#038048;stroke-width:1;"/><text fill="#000000" font-family="sans-serif" font-size="14" lengthAdjust="spacing" text-decoration="underline" textLength="550.0332" x="579.98" y="606.0495">for_destroy_marionette(marionette: AbstractNavigatorMarionette) : Command</text></g><!--class culn--><g class="entity" data-entity="culn" data-source-line="45" data-uid="ent0012" id="entity_culn"><rect fill="#F1F1F1" height="64.2969" rx="2.5" ry="2.5" style="stroke:#181818;stroke-width:0.5;" width="295.9443" x="72.03" y="673.35"/><ellipse cx="148.5105" cy="689.35" fill="#ADD1B2" rx="11" ry="11" style="stroke:#181818;stroke-width:1;"/><path d="M151.4792,694.9906 Q150.9011,695.2875 150.2605,695.4281 Q149.6198,695.5844 148.9167,695.5844 Q146.4167,695.5844 145.0886,693.9438 Q143.7761,692.2875 143.7761,689.1625 Q143.7761,686.0375 145.0886,684.3813 Q146.4167,682.725 148.9167,682.725 Q149.6198,682.725 150.2605,682.8813 Q150.9167,683.0375 151.4792,683.3344 L151.4792,686.0531 Q150.8542,685.475 150.2605,685.2094 Q149.6667,684.9281 149.0417,684.9281 Q147.698,684.9281 147.0105,686.0063 Q146.323,687.0688 146.323,689.1625 Q146.323,691.2563 147.0105,692.3344 Q147.698,693.3969 149.0417,693.3969 Q149.6667,693.3969 150.2605,693.1313 Q150.8542,692.85 151.4792,692.2719 L151.4792,694.9906 Z " fill="#000000"/><text fill="#000000" font-family="sans-serif" font-size="14" lengthAdjust="spacing" textLength="134.4834" x="169.0105" y="694.1967">CreateUserLikeNav</text><line style="stroke:#181818;stroke-width:0.5;" x1="73.03" x2="366.9743" y1="705.35" y2="705.35"/><line style="stroke:#181818;stroke-width:0.5;" x1="73.03" x2="366.9743" y1="713.35" y2="713.35"/><text fill="#000000" font-family="sans-serif" font-size="14" lengthAdjust="spacing" textLength="283.9443" x="78.03" y="730.3451">execute() : AbstractNavigatorMarionette</text></g><!--class dm--><g class="entity" data-entity="dm" data-source-line="51" data-uid="ent0016" id="entity_dm"><rect fill="#F1F1F1" height="64.2969" rx="2.5" ry="2.5" style="stroke:#181818;stroke-width:0.5;" width="162.7305" x="402.63" y="673.35"/><ellipse cx="417.63" cy="689.35" fill="#ADD1B2" rx="11" ry="11" style="stroke:#181818;stroke-width:1;"/><path d="M420.5988,694.9906 Q420.0206,695.2875 419.38,695.4281 Q418.7394,695.5844 418.0363,695.5844 Q415.5363,695.5844 414.2081,693.9438 Q412.8956,692.2875 412.8956,689.1625 Q412.8956,686.0375 414.2081,684.3813 Q415.5363,682.725 418.0363,682.725 Q418.7394,682.725 419.38,682.8813 Q420.0363,683.0375 420.5988,683.3344 L420.5988,686.0531 Q419.9738,685.475 419.38,685.2094 Q418.7863,684.9281 418.1613,684.9281 Q416.8175,684.9281 416.13,686.0063 Q415.4425,687.0688 415.4425,689.1625 Q415.4425,691.2563 416.13,692.3344 Q416.8175,693.3969 418.1613,693.3969 Q418.7863,693.3969 419.38,693.1313 Q419.9738,692.85 420.5988,692.2719 L420.5988,694.9906 Z " fill="#000000"/><text fill="#000000" font-family="sans-serif" font-size="14" lengthAdjust="spacing" textLength="130.7305" x="431.63" y="694.1967">DestroyMarionette</text><line style="stroke:#181818;stroke-width:0.5;" x1="403.63" x2="564.3605" y1="705.35" y2="705.35"/><line style="stroke:#181818;stroke-width:0.5;" x1="403.63" x2="564.3605" y1="713.35" y2="713.35"/><text fill="#000000" font-family="sans-serif" font-size="14" lengthAdjust="spacing" textLength="110.3525" x="408.63" y="730.3451">execute() : void</text></g><!--class vl--><g class="entity" data-entity="vl" data-source-line="57" data-uid="ent0020" id="entity_vl"><rect fill="#F1F1F1" height="64.2969" rx="2.5" ry="2.5" style="stroke:#181818;stroke-width:0.5;" width="122.3525" x="600.82" y="673.35"/><ellipse cx="620.8996" cy="689.35" fill="#ADD1B2" rx="11" ry="11" style="stroke:#181818;stroke-width:1;"/><path d="M623.8684,694.9906 Q623.2903,695.2875 622.6496,695.4281 Q622.009,695.5844 621.3059,695.5844 Q618.8059,695.5844 617.4778,693.9438 Q616.1653,692.2875 616.1653,689.1625 Q616.1653,686.0375 617.4778,684.3813 Q618.8059,682.725 621.3059,682.725 Q622.009,682.725 622.6496,682.8813 Q623.3059,683.0375 623.8684,683.3344 L623.8684,686.0531 Q623.2434,685.475 622.6496,685.2094 Q622.0559,684.9281 621.4309,684.9281 Q620.0871,684.9281 619.3996,686.0063 Q618.7121,687.0688 618.7121,689.1625 Q618.7121,691.2563 619.3996,692.3344 Q620.0871,693.3969 621.4309,693.3969 Q622.0559,693.3969 622.6496,693.1313 Q623.2434,692.85 623.8684,692.2719 L623.8684,694.9906 Z " fill="#000000"/><text fill="#000000" font-family="sans-serif" font-size="14" lengthAdjust="spacing" textLength="79.0645" x="636.0284" y="694.1967">VerifyLogin</text><line style="stroke:#181818;stroke-width:0.5;" x1="601.82" x2="722.1725" y1="705.35" y2="705.35"/><line style="stroke:#181818;stroke-width:0.5;" x1="601.82" x2="722.1725" y1="713.35" y2="713.35"/><text fill="#000000" font-family="sans-serif" font-size="14" lengthAdjust="spacing" textLength="110.3525" x="606.82" y="730.3451">execute() : void</text></g><!--class sufh--><g class="entity" data-entity="sufh" data-source-line="63" data-uid="ent0024" id="entity_sufh"><rect fill="#F1F1F1" height="64.2969" rx="2.5" ry="2.5" style="stroke:#181818;stroke-width:0.5;" width="180.5654" x="757.72" y="673.35"/><ellipse cx="772.72" cy="689.35" fill="#ADD1B2" rx="11" ry="11" style="stroke:#181818;stroke-width:1;"/><path d="M775.6888,694.9906 Q775.1106,695.2875 774.47,695.4281 Q773.8294,695.5844 773.1263,695.5844 Q770.6263,695.5844 769.2981,693.9438 Q767.9856,692.2875 767.9856,689.1625 Q767.9856,686.0375 769.2981,684.3813 Q770.6263,682.725 773.1263,682.725 Q773.8294,682.725 774.47,682.8813 Q775.1263,683.0375 775.6888,683.3344 L775.6888,686.0531 Q775.0638,685.475 774.47,685.2094 Q773.8763,684.9281 773.2513,684.9281 Q771.9075,684.9281 771.22,686.0063 Q770.5325,687.0688 770.5325,689.1625 Q770.5325,691.2563 771.22,692.3344 Q771.9075,693.3969 773.2513,693.3969 Q773.8763,693.3969 774.47,693.1313 Q775.0638,692.85 775.6888,692.2719 L775.6888,694.9906 Z " fill="#000000"/><text fill="#000000" font-family="sans-serif" font-size="14" lengthAdjust="spacing" textLength="148.5654" x="786.72" y="694.1967">ScrapUsersFromHtml</text><line style="stroke:#181818;stroke-width:0.5;" x1="758.72" x2="937.2854" y1="705.35" y2="705.35"/><line style="stroke:#181818;stroke-width:0.5;" x1="758.72" x2="937.2854" y1="713.35" y2="713.35"/><text fill="#000000" font-family="sans-serif" font-size="14" lengthAdjust="spacing" textLength="110.3525" x="763.72" y="730.3451">execute() : void</text></g><!--class susf--><g class="entity" data-entity="susf" data-source-line="70" data-uid="ent0029" id="entity_susf"><rect fill="#F1F1F1" height="96.8906" rx="2.5" ry="2.5" style="stroke:#181818;stroke-width:0.5;" width="309.917" x="548.04" y="797.65"/><ellipse cx="597.2827" cy="813.65" fill="#ADD1B2" rx="11" ry="11" style="stroke:#181818;stroke-width:1;"/><path d="M600.2514,819.2906 Q599.6733,819.5875 599.0327,819.7281 Q598.3921,819.8844 597.6889,819.8844 Q595.1889,819.8844 593.8608,818.2438 Q592.5483,816.5875 592.5483,813.4625 Q592.5483,810.3375 593.8608,808.6813 Q595.1889,807.025 597.6889,807.025 Q598.3921,807.025 599.0327,807.1813 Q599.6889,807.3375 600.2514,807.6344 L600.2514,810.3531 Q599.6264,809.775 599.0327,809.5094 Q598.4389,809.2281 597.8139,809.2281 Q596.4702,809.2281 595.7827,810.3063 Q595.0952,811.3688 595.0952,813.4625 Q595.0952,815.5563 595.7827,816.6344 Q596.4702,817.6969 597.8139,817.6969 Q598.4389,817.6969 599.0327,817.4313 Q599.6264,817.15 600.2514,816.5719 L600.2514,819.2906 Z " fill="#000000"/><text fill="#000000" font-family="sans-serif" font-size="14" lengthAdjust="spacing" textLength="202.9316" x="617.7827" y="818.4967">ScrapUsersStrategiesFactory</text><line style="stroke:#181818;stroke-width:0.5;" x1="549.04" x2="856.957" y1="829.65" y2="829.65"/><line style="stroke:#181818;stroke-width:0.5;" x1="549.04" x2="856.957" y1="837.65" y2="837.65"/><ellipse cx="559.04" cy="851.2984" fill="#84BE84" rx="3" ry="3" style="stroke:#038048;stroke-width:1;"/><text fill="#000000" font-family="sans-serif" font-size="14" lengthAdjust="spacing" text-decoration="underline" textLength="250.9336" x="568.04" y="854.6451">for_list_users_dom() : ListUsersDom</text><ellipse cx="559.04" cy="867.5953" fill="#84BE84" rx="3" ry="3" style="stroke:#038048;stroke-width:1;"/><text fill="#000000" font-family="sans-serif" font-size="14" lengthAdjust="spacing" text-decoration="underline" textLength="283.917" x="568.04" y="870.942">for_scrap_users_dom() : ScrapUsersDom</text><ellipse cx="559.04" cy="883.8922" fill="#84BE84" rx="3" ry="3" style="stroke:#038048;stroke-width:1;"/><text fill="#000000" font-family="sans-serif" font-size="14" lengthAdjust="spacing" text-decoration="underline" textLength="220.1445" x="568.04" y="887.2389">for_refine_users() : RefineUsers</text></g><!--class su_str_lud--><g class="entity" data-entity="su_str_lud" data-source-line="76" data-uid="ent0030" id="entity_su_str_lud"><rect fill="#F1F1F1" height="80.5938" rx="2.5" ry="2.5" style="stroke:#181818;stroke-width:0.5;" width="427.1533" x="46.42" y="954.54"/><ellipse cx="207.4166" cy="970.54" fill="#ADD1B2" rx="11" ry="11" style="stroke:#181818;stroke-width:1;"/><path d="M210.3853,976.1806 Q209.8072,976.4775 209.1666,976.6181 Q208.526,976.7744 207.8228,976.7744 Q205.3228,976.7744 203.9947,975.1338 Q202.6822,973.4775 202.6822,970.3525 Q202.6822,967.2275 203.9947,965.5713 Q205.3228,963.915 207.8228,963.915 Q208.526,963.915 209.1666,964.0713 Q209.8228,964.2275 210.3853,964.5244 L210.3853,967.2431 Q209.7603,966.665 209.1666,966.3994 Q208.5728,966.1181 207.9478,966.1181 Q206.6041,966.1181 205.9166,967.1963 Q205.2291,968.2588 205.2291,970.3525 Q205.2291,972.4463 205.9166,973.5244 Q206.6041,974.5869 207.9478,974.5869 Q208.5728,974.5869 209.1666,974.3213 Q209.7603,974.04 210.3853,973.4619 L210.3853,976.1806 Z " fill="#000000"/><text fill="#000000" font-family="sans-serif" font-size="14" lengthAdjust="spacing" textLength="96.6602" x="227.9166" y="975.3867">ListUsersDom</text><line style="stroke:#181818;stroke-width:0.5;" x1="47.42" x2="472.5733" y1="986.54" y2="986.54"/><line style="stroke:#181818;stroke-width:0.5;" x1="47.42" x2="472.5733" y1="994.54" y2="994.54"/><ellipse cx="57.42" cy="1016.3369" fill="#84BE84" rx="3" ry="3" style="stroke:#038048;stroke-width:1;"/><text fill="#000000" font-family="sans-serif" font-size="14" lengthAdjust="spacing" textLength="210.9023" x="66.42" y="1011.5351">do_list_users_dom(marionette</text><text fill="#000000" font-family="sans-serif" font-size="14" lengthAdjust="spacing" textLength="396.7031" x="70.8702" y="1027.832">: AbstractNavigatorMarionette) : UsersAsDomElements[]</text></g><!--class su_str_ru--><g class="entity" data-entity="su_str_ru" data-source-line="81" data-uid="ent0032" id="entity_su_str_ru"><rect fill="#F1F1F1" height="80.5938" rx="2.5" ry="2.5" style="stroke:#181818;stroke-width:0.5;" width="327.0684" x="508.47" y="954.54"/><ellipse cx="625.8294" cy="970.54" fill="#ADD1B2" rx="11" ry="11" style="stroke:#181818;stroke-width:1;"/><path d="M628.7981,976.1806 Q628.22,976.4775 627.5794,976.6181 Q626.9388,976.7744 626.2356,976.7744 Q623.7356,976.7744 622.4075,975.1338 Q621.095,973.4775 621.095,970.3525 Q621.095,967.2275 622.4075,965.5713 Q623.7356,963.915 626.2356,963.915 Q626.9388,963.915 627.5794,964.0713 Q628.2356,964.2275 628.7981,964.5244 L628.7981,967.2431 Q628.1731,966.665 627.5794,966.3994 Q626.9856,966.1181 626.3606,966.1181 Q625.0169,966.1181 624.3294,967.1963 Q623.6419,968.2588 623.6419,970.3525 Q623.6419,972.4463 624.3294,973.5244 Q625.0169,974.5869 626.3606,974.5869 Q626.9856,974.5869 627.5794,974.3213 Q628.1731,974.04 628.7981,973.4619 L628.7981,976.1806 Z " fill="#000000"/><text fill="#000000" font-family="sans-serif" font-size="14" lengthAdjust="spacing" textLength="83.8496" x="646.3294" y="975.3867">RefineUsers</text><line style="stroke:#181818;stroke-width:0.5;" x1="509.47" x2="834.5384" y1="986.54" y2="986.54"/><line style="stroke:#181818;stroke-width:0.5;" x1="509.47" x2="834.5384" y1="994.54" y2="994.54"/><ellipse cx="519.47" cy="1016.3369" fill="#84BE84" rx="3" ry="3" style="stroke:#038048;stroke-width:1;"/><text fill="#000000" font-family="sans-serif" font-size="14" lengthAdjust="spacing" textLength="286.2344" x="528.47" y="1011.5351">do_refine_users(users_as_dom_elements</text><text fill="#000000" font-family="sans-serif" font-size="14" lengthAdjust="spacing" textLength="296.6182" x="532.9202" y="1027.832">: UsersAsDomElements) : InstagramUser[]</text></g><!--class su_str_sud--><g class="entity" data-entity="su_str_sud" data-source-line="86" data-uid="ent0034" id="entity_su_str_sud"><rect fill="#F1F1F1" height="80.5938" rx="2.5" ry="2.5" style="stroke:#181818;stroke-width:0.5;" width="291.542" x="870.23" y="954.54"/><ellipse cx="955.7544" cy="970.54" fill="#ADD1B2" rx="11" ry="11" style="stroke:#181818;stroke-width:1;"/><path d="M958.7232,976.1806 Q958.145,976.4775 957.5044,976.6181 Q956.8638,976.7744 956.1607,976.7744 Q953.6607,976.7744 952.3325,975.1338 Q951.02,973.4775 951.02,970.3525 Q951.02,967.2275 952.3325,965.5713 Q953.6607,963.915 956.1607,963.915 Q956.8638,963.915 957.5044,964.0713 Q958.1607,964.2275 958.7232,964.5244 L958.7232,967.2431 Q958.0982,966.665 957.5044,966.3994 Q956.9107,966.1181 956.2857,966.1181 Q954.9419,966.1181 954.2544,967.1963 Q953.5669,968.2588 953.5669,970.3525 Q953.5669,972.4463 954.2544,973.5244 Q954.9419,974.5869 956.2857,974.5869 Q956.9107,974.5869 957.5044,974.3213 Q958.0982,974.04 958.7232,973.4619 L958.7232,976.1806 Z " fill="#000000"/><text fill="#000000" font-family="sans-serif" font-size="14" lengthAdjust="spacing" textLength="111.9932" x="976.2544" y="975.3867">ScrapUsersDom</text><line style="stroke:#181818;stroke-width:0.5;" x1="871.23" x2="1160.772" y1="986.54" y2="986.54"/><line style="stroke:#181818;stroke-width:0.5;" x1="871.23" x2="1160.772" y1="994.54" y2="994.54"/><ellipse cx="881.23" cy="1016.3369" fill="#84BE84" rx="3" ry="3" style="stroke:#038048;stroke-width:1;"/><text fill="#000000" font-family="sans-serif" font-size="14" lengthAdjust="spacing" textLength="228.5527" x="890.23" y="1011.5351">do_scrap_users_dom(marionette</text><text fill="#000000" font-family="sans-serif" font-size="14" lengthAdjust="spacing" textLength="261.0918" x="894.6802" y="1027.832">: AbstractNavigatorMarionette) : void</text></g><g class="entity" data-entity="GMN36" data-source-line="91" data-uid="ent0037" id="entity_GMN36"><path d="M924.19,818.39 L924.19,873.7884 A0,0 0 0 0 924.19,873.7884 L1012,873.7884 L1016,954.08 L1020,873.7884 L1107.8043,873.7884 A0,0 0 0 0 1107.8043,873.7884 L1107.8043,828.39 L1097.8043,818.39 L924.19,818.39 A0,0 0 0 0 924.19,818.39" fill="#FEFFDD" style="stroke:#181818;stroke-width:0.5;"/><path d="M1097.8043,818.39 L1097.8043,828.39 L1107.8043,828.39 L1097.8043,818.39" fill="#FEFFDD" style="stroke:#181818;stroke-width:0.5;"/><text fill="#000000" font-family="sans-serif" font-size="13" lengthAdjust="spacing" textLength="153.8354" x="930.19" y="835.4569">This class makes use of</text><text fill="#000000" font-family="sans-serif" font-size="13" lengthAdjust="spacing" textLength="162.6143" x="930.19" y="850.5897">environment parameters</text><text fill="#000000" font-family="sans-serif" font-size="13" lengthAdjust="spacing" textLength="139.2993" x="930.19" y="865.7225">related to wait times.</text></g><!--class macro_nfb--><g class="entity" data-entity="macro_nfb" data-source-line="101" data-uid="ent0040" id="entity_macro_nfb"><rect fill="#F1F1F1" height="129.4844" rx="2.5" ry="2.5" style="stroke:#181818;stroke-width:0.5;" width="306.3418" x="694.83" y="237.34"/><ellipse cx="740.5214" cy="253.34" fill="#ADD1B2" rx="11" ry="11" style="stroke:#181818;stroke-width:1;"/><path d="M743.4902,258.9806 Q742.912,259.2775 742.2714,259.4181 Q741.6308,259.5744 740.9277,259.5744 Q738.4277,259.5744 737.0995,257.9338 Q735.787,256.2775 735.787,253.1525 Q735.787,250.0275 737.0995,248.3713 Q738.4277,246.715 740.9277,246.715 Q741.6308,246.715 742.2714,246.8713 Q742.9277,247.0275 743.4902,247.3244 L743.4902,250.0431 Q742.8652,249.465 742.2714,249.1994 Q741.6777,248.9181 741.0527,248.9181 Q739.7089,248.9181 739.0214,249.9963 Q738.3339,251.0588 738.3339,253.1525 Q738.3339,255.2463 739.0214,256.3244 Q739.7089,257.3869 741.0527,257.3869 Q741.6777,257.3869 742.2714,257.1213 Q742.8652,256.84 743.4902,256.2619 L743.4902,258.9806 Z " fill="#000000"/><text fill="#000000" font-family="sans-serif" font-size="14" lengthAdjust="spacing" textLength="206.459" x="761.0214" y="258.1867">MacroUsersNotFollowingBack</text><line style="stroke:#181818;stroke-width:0.5;" x1="695.83" x2="1000.1718" y1="269.34" y2="269.34"/><text fill="#000000" font-family="sans-serif" font-size="14" lengthAdjust="spacing" textLength="294.3418" x="700.83" y="286.3351">marionette : AbstractNavigatorMarionette</text><text fill="#000000" font-family="sans-serif" font-size="14" lengthAdjust="spacing" textLength="190.627" x="700.83" y="302.632">followers : InstagramUser[]</text><text fill="#000000" font-family="sans-serif" font-size="14" lengthAdjust="spacing" textLength="190.6133" x="700.83" y="318.9289">following : InstagramUser[]</text><text fill="#000000" font-family="sans-serif" font-size="14" lengthAdjust="spacing" textLength="173.667" x="700.83" y="335.2257">commands : Command[]</text><line style="stroke:#181818;stroke-width:0.5;" x1="695.83" x2="1000.1718" y1="342.5275" y2="342.5275"/><text fill="#000000" font-family="sans-serif" font-size="14" lengthAdjust="spacing" textLength="102.0674" x="700.83" y="359.5226">execute() : obj</text></g><path d="M428.43,276.95 L428.43,317.2156 A0,0 0 0 0 428.43,317.2156 L659.5692,317.2156 A0,0 0 0 0 659.5692,317.2156 L659.5692,301.0828 L698.83,354.6759 L659.5692,293.0828 L659.5692,286.95 L649.5692,276.95 L428.43,276.95 A0,0 0 0 0 428.43,276.95" fill="#FEFFDD" style="stroke:#181818;stroke-width:0.5;"/><path d="M649.5692,276.95 L649.5692,286.95 L659.5692,286.95 L649.5692,276.95" fill="#FEFFDD" style="stroke:#181818;stroke-width:0.5;"/><text fill="#000000" font-family="sans-serif" font-size="13" lengthAdjust="spacing" textLength="210.1392" x="434.43" y="294.0169">for command in self.commands:</text><text fill="#000000" font-family="sans-serif" font-size="13" lengthAdjust="spacing" textLength="131.333" x="442.6946" y="309.1497">command.execute()</text><!--reverse link anm to ulmen--><g class="link" data-entity-1="anm" data-entity-2="ulmen" data-source-line="22" data-uid="lnk6" id="link_anm_ulmen"><path codeLine="22" d="M1416,425.79 C1416,455.06 1416,467.44 1416,491.64" fill="none" id="anm-backto-ulmen" style="stroke:#181818;stroke-width:1;"/><polygon fill="none" points="1416,407.79,1410,425.79,1422,425.79,1416,407.79" style="stroke:#181818;stroke-width:1;"/></g><!--reverse link c to culn--><g class="link" data-entity-1="c" data-entity-2="culn" data-source-line="48" data-uid="lnk14" id="link_c_culn"><path codeLine="48" d="M404.849,582.9777 C361.039,611.7777 311.74,644.18 267.98,672.96" fill="none" id="c-backto-culn" style="stroke:#181818;stroke-width:1;"/><polygon fill="none" points="419.89,573.09,401.5531,577.9641,408.1449,587.9914,419.89,573.09" style="stroke:#181818;stroke-width:1;"/></g><!--link cf to culn--><g class="link" data-entity-1="cf" data-entity-2="culn" data-source-line="49" data-uid="lnk15" id="link_cf_culn"><path codeLine="49" d="M569.35,613.8 C489.52,634.52 412.4174,654.5421 347.4074,671.4221" fill="none" id="cf-to-culn" style="stroke:#181818;stroke-width:1;"/><polygon fill="#181818" points="341.6,672.93,351.3164,674.5397,346.4395,671.6734,349.3059,666.7965,341.6,672.93" style="stroke:#181818;stroke-width:1;"/></g><!--reverse link c to dm--><g class="link" data-entity-1="c" data-entity-2="dm" data-source-line="54" data-uid="lnk18" id="link_c_dm"><path codeLine="54" d="M472.8415,590.8036 C475.6715,619.5836 478.07,644.05 480.9,672.88" fill="none" id="c-backto-dm" style="stroke:#181818;stroke-width:1;"/><polygon fill="none" points="471.08,572.89,466.8703,591.3908,478.8127,590.2164,471.08,572.89" style="stroke:#181818;stroke-width:1;"/></g><!--link cf to dm--><g class="link" data-entity-1="cf" data-entity-2="dm" data-source-line="55" data-uid="lnk19" id="link_cf_dm"><path codeLine="55" d="M686.49,613.8 C640.13,634.57 597.4358,653.6874 559.7258,670.5774" fill="none" id="cf-to-dm" style="stroke:#181818;stroke-width:1;"/><polygon fill="#181818" points="554.25,673.03,564.0988,673.0017,558.8132,670.9862,560.8287,665.7006,554.25,673.03" style="stroke:#181818;stroke-width:1;"/></g><!--reverse link c to vl--><g class="link" data-entity-1="c" data-entity-2="vl" data-source-line="60" data-uid="lnk22" id="link_c_vl"><path codeLine="60" d="M511.3168,585.4388 C524.3568,598.3788 527.2,600.62 542,613.35 C566.3,634.25 594.82,656.01 617.96,673.04" fill="none" id="c-backto-vl" style="stroke:#181818;stroke-width:1;"/><polygon fill="none" points="498.54,572.76,507.0905,589.6978,515.5431,581.1799,498.54,572.76" style="stroke:#181818;stroke-width:1;"/></g><!--link cf to vl--><g class="link" data-entity-1="cf" data-entity-2="vl" data-source-line="61" data-uid="lnk23" id="link_cf_vl"><path codeLine="61" d="M765.61,613.68 C741.9,634.46 721.7617,652.1047 702.4617,669.0247" fill="none" id="cf-to-vl" style="stroke:#181818;stroke-width:1;"/><polygon fill="#181818" points="697.95,672.98,707.3544,670.0548,701.7097,669.6839,702.0807,664.0392,697.95,672.98" style="stroke:#181818;stroke-width:1;"/></g><!--reverse link c to sufh--><g class="link" data-entity-1="c" data-entity-2="sufh" data-source-line="66" data-uid="lnk26" id="link_c_sufh"><path codeLine="66" d="M506.366,586.2029 C519.456,600.2829 524.08,602.84 542,613.35 C546.86,616.2 668.84,652.15 757.3,678.04" fill="none" id="c-backto-sufh" style="stroke:#181818;stroke-width:1;"/><polygon fill="none" points="494.11,573.02,501.9717,590.2883,510.7603,582.1176,494.11,573.02" style="stroke:#181818;stroke-width:1;"/></g><!--link cf to sufh--><g class="link" data-entity-1="cf" data-entity-2="sufh" data-source-line="67" data-uid="lnk27" id="link_cf_sufh"><path codeLine="67" d="M848,613.44 C848,634.26 848,649.91 848,666.88" fill="none" id="cf-to-sufh" style="stroke:#181818;stroke-width:1;"/><polygon fill="#181818" points="848,672.88,852,663.88,848,667.88,844,663.88,848,672.88" style="stroke:#181818;stroke-width:1;"/></g><!--link susf to su_str_lud--><g class="link" data-entity-1="susf" data-entity-2="su_str_lud" data-source-line="79" data-uid="lnk31" id="link_susf_su_str_lud"><path codeLine="79" d="M558.56,894.94 C500.74,914.09 440.6054,934.0026 385.5054,952.2626" fill="none" id="susf-to-su_str_lud" style="stroke:#181818;stroke-width:1;"/><polygon fill="#181818" points="379.81,954.15,389.6114,955.1158,384.5562,952.5771,387.0948,947.5219,379.81,954.15" style="stroke:#181818;stroke-width:1;"/></g><!--link susf to su_str_ru--><g class="link" data-entity-1="susf" data-entity-2="su_str_ru" data-source-line="84" data-uid="lnk33" id="link_susf_su_str_ru"><path codeLine="84" d="M692.94,894.73 C688.87,913.98 685.4682,930.0591 681.5982,948.4091" fill="none" id="susf-to-su_str_ru" style="stroke:#181818;stroke-width:1;"/><polygon fill="#181818" points="680.36,954.28,686.1311,946.2992,681.3918,949.3876,678.3033,944.6483,680.36,954.28" style="stroke:#181818;stroke-width:1;"/></g><!--link susf to su_str_sud--><g class="link" data-entity-1="susf" data-entity-2="su_str_sud" data-source-line="89" data-uid="lnk35" id="link_susf_su_str_sud"><path codeLine="89" d="M805.05,894.94 C845.91,914.09 886.9879,933.3421 925.9179,951.6021" fill="none" id="susf-to-su_str_sud" style="stroke:#181818;stroke-width:1;"/><polygon fill="#181818" points="931.35,954.15,924.9004,946.7067,926.8232,952.0267,921.5032,953.9495,931.35,954.15" style="stroke:#181818;stroke-width:1;"/></g><!--link sufh to susf--><g class="link" data-entity-1="sufh" data-entity-2="susf" data-source-line="96" data-uid="lnk39" id="link_sufh_susf"><path codeLine="96" d="M815.1,737.95 C796.8,755.44 777.9768,773.4236 757.4768,793.0236" fill="none" id="sufh-to-susf" style="stroke:#181818;stroke-width:1;"/><polygon fill="#181818" points="753.14,797.17,762.4094,793.8416,756.754,793.7147,756.8809,788.0593,753.14,797.17" style="stroke:#181818;stroke-width:1;"/></g><!--link macro_nfb to anm--><g class="link" data-entity-1="macro_nfb" data-entity-2="anm" data-source-line="115" data-uid="lnk43" id="link_macro_nfb_anm"><path codeLine="115" d="M1001.65,302.08 C1081.77,302.08 1149.89,302.08 1230,302.08" fill="none" id="macro_nfb-to-anm" style="stroke:#181818;stroke-width:1;"/><polygon fill="#181818" points="1242,302.08,1236,298.08,1230,302.08,1236,306.08,1242,302.08" style="stroke:#181818;stroke-width:1;"/><text fill="#000000" font-family="sans-serif" font-size="13" lengthAdjust="spacing" textLength="8.271" x="1009.2927" y="298.7867">1</text><text fill="#000000" font-family="sans-serif" font-size="13" lengthAdjust="spacing" textLength="8.271" x="1225.9403" y="298.8099">1</text></g><!--reverse link user to macro_nfb--><g class="link" data-entity-1="user" data-entity-2="macro_nfb" data-source-line="116" data-uid="lnk45" id="link_user_macro_nfb"><path codeLine="116" d="M848,133.92 C848,165.94 848,199.64 848,236.87" fill="none" id="user-backto-macro_nfb" style="stroke:#181818;stroke-width:1;"/><polygon fill="#181818" points="848,121.92,844,127.92,848,133.92,852,127.92,848,121.92" style="stroke:#181818;stroke-width:1;"/><text fill="#000000" font-family="sans-serif" font-size="13" lengthAdjust="spacing" textLength="9.7246" x="838.341" y="141.6671">N</text><text fill="#000000" font-family="sans-serif" font-size="13" lengthAdjust="spacing" textLength="8.271" x="839.6014" y="226.4453">1</text></g><!--link macro_nfb to c--><g class="link" data-entity-1="macro_nfb" data-entity-2="c" data-source-line="117" data-uid="lnk46" id="link_macro_nfb_c"><path codeLine="117" d="M758.84,367.3 C733.47,382.82 705.07,397.74 677,407.57 C619.93,427.56 593.17,392.35 542,424.57 C511.28,443.91 495.5641,470.1347 484.0941,496.9847" fill="none" id="macro_nfb-to-c" style="stroke:#181818;stroke-width:1;"/><polygon fill="#181818" points="479.38,508.02,485.4155,504.0737,484.0941,496.9847,478.0586,500.931,479.38,508.02" style="stroke:#181818;stroke-width:1;"/><text fill="#000000" font-family="sans-serif" font-size="13" lengthAdjust="spacing" textLength="8.271" x="741.2468" y="386.8728">1</text><text fill="#000000" font-family="sans-serif" font-size="13" lengthAdjust="spacing" textLength="9.7246" x="471.8051" y="497.2371">N</text></g><!--link macro_nfb to cf--><g class="link" data-entity-1="macro_nfb" data-entity-2="cf" data-source-line="119" data-uid="lnk47" id="link_macro_nfb_cf"><path codeLine="119" d="M848,367.05 C848,397.95 848,429.16 848,461.09" fill="none" id="macro_nfb-to-cf" style="stroke:#181818;stroke-width:1;"/><polygon fill="#181818" points="848,467.09,852,458.09,848,462.09,844,458.09,848,467.09" style="stroke:#181818;stroke-width:1;"/></g><!--SRC=[bLPBZzis4BxhLn0-EMcyGAy-14YRB59WTmzDqajJ43GVChCKwPAKDujq_tk7GqgcPCMRd6nn7jytBmuFZD-pLf9LnxnsLiOeLuG5Sleatnf2s2v4ptWatB0GoEfD-RvZHzsowFpjr9pP3kq8UP0xuVLHUdfWSK-s10nHq0Su4omoAhIlpeKqx94w1VgjfCOn0K9jOuFI82CzrrZZKTPx0Jz7fmMgjw2-ZvsXtDaeRLo_g91i9Y_NlJVv-1LvO3h2_vrpPk9eqANC2fgKg79UGbWduua-DvhVhta8D4WZEMJeEOJ0lJE62lTWVyhktrxdiCh9KqfKATCdoF6DlfUtuPre9HGBYzERJjfI7cqX57U8KBomdlX52TWVDPSBabpKC-3iUzCVDl-zJbtGm6bp69eCAg2ZbW5f31_8f13-muR8Mi-wn3oJXJ-5AtQC5bK5LGyPiwoJuzbJ0XpnkEiwA5Z66pxG6pIAz8fnKFezdsUT0YM_Ijx77BVRVPcbjLXSirIVnsoeYkKlto22gFaJz0VbNgQUEGqJEYpcv-gGKAqUeQDRRTVL16x9XNbxzTaI7G33zina5vgpLD2gMxuB2Lt73ZHbDbI8pmAY0GuLqnQgCctMYuX2WePxh9FoWy1JjvE2O9w7RX_wdFV6BjJp0WAw9Tcmz31FtufiqbnkNgEe0dwRWvdTVg9RW1sdX2JvidVHLRx_mcwuISs0Ne_cibUGBtizcihhXrJmbAbmxLtt7kv6T1vwjR_i7ZMM0P8eGOnp5qQGgvJhADjXw4DFuQGWdL7wC2hNinNwC4pNh9UC3Z4tBzoR7JA-WIFqzTPrIoPLmuys9mBVCV9IGPkNCKaMV-81cg3-KrC7L7EeegQc5wSuX9lJFut1PqkUdGG4U9CWtXa9bsuCV_zJkE0wIKdRO746x0d7AeAQekyd32U1PwOCoL9PG97gEPV4S7APNoJd-sQv8MO93BC4pelvSnaS5zeoAG3Bgz_15HpTWJWr5n7oSQz3eTsnUudx2XIBLDgZziwcZC1mG2Pa73g640zlbYW5kCwxFUfEXgiyWbOWR7dpuEGXiQ267TUKNDqoU3TWhkvSl8ONX7lGjlqD9h6yuq1ChTfXtdvqfu2gGbVWTh6GQW1Qb8wRTholuRWvtweG1YRNI1LJTaUossrHHIW_E8Ij3Gz0ewu6W6tkclnrDRflJlaxnR_wTKKsNhVxk7c97-brCXF3xGQoknNkjxaGBxiivhNZSJMe_m40]--></g></svg>